<svg width="20" height="18" viewBox="0 0 20 18" fill="none" xmlns="http://www.w3.org/2000/svg">
<g opacity="0.9">
<path d="M13.3023 12.9891C13.6163 13.2722 13.6163 13.6968 13.3023 13.9799C13.1453 14.1214 12.9883 14.1922 12.7528 14.1922C12.5173 14.1922 12.3603 14.1214 12.2033 13.9799L7.49331 9.73379C7.17931 9.45072 7.17931 9.02611 7.49331 8.74304L12.2033 4.49697C12.5173 4.2139 12.9883 4.2139 13.3023 4.49697C13.6163 4.78004 13.6163 5.20465 13.3023 5.48772L9.14181 9.23841L13.3023 12.9891Z" fill="#325ECD"/>
<mask id="mask0_1455_23893" style="mask-type:luminance" maskUnits="userSpaceOnUse" x="7" y="4" width="7" height="11">
<path d="M13.3023 12.9891C13.6163 13.2722 13.6163 13.6968 13.3023 13.9799C13.1453 14.1214 12.9883 14.1922 12.7528 14.1922C12.5173 14.1922 12.3603 14.1214 12.2033 13.9799L7.49331 9.73379C7.17931 9.45072 7.17931 9.02611 7.49331 8.74304L12.2033 4.49697C12.5173 4.2139 12.9883 4.2139 13.3023 4.49697C13.6163 4.78004 13.6163 5.20465 13.3023 5.48772L9.14181 9.23841L13.3023 12.9891Z" fill="white"/>
</mask>
<g mask="url(#mask0_1455_23893)">
<rect x="0.978027" y="0.746094" width="18.84" height="16.9843" fill="#777B82"/>
</g>
</g>
</svg>
