<svg width="26" height="44" viewBox="0 0 26 44" fill="none" xmlns="http://www.w3.org/2000/svg">
<path d="M13.5058 43.488C13.4527 43.488 13.3996 43.4711 13.3542 43.4375L9.30221 40.3984C9.23874 40.3505 9.20117 40.2754 9.20117 40.1964V25.6787C9.20117 25.5803 9.25817 25.4909 9.34626 25.4494C9.43564 25.408 9.54057 25.4209 9.6157 25.4844L11.6417 27.1723C11.7 27.2203 11.7324 27.2915 11.7324 27.3666V38.8452C11.735 38.9204 11.7855 39.6044 12.9553 39.6044C14.2066 39.6044 14.2623 38.9191 14.2649 38.8414V27.0285C14.2649 26.9417 14.3103 26.8601 14.3841 26.8135L17.085 25.1256C17.1848 25.0621 17.3156 25.0777 17.3985 25.1606L19.4245 27.1866C19.5191 27.2811 19.5243 27.434 19.4349 27.5337L16.9166 30.3668L19.3973 32.2283C19.4556 32.2723 19.4932 32.3397 19.4984 32.4135C19.5035 32.4874 19.4763 32.5586 19.4245 32.6104L17.2405 34.7945L19.4245 36.9786C19.5217 37.0757 19.523 37.2312 19.4297 37.3309L13.6898 43.4077C13.6405 43.4608 13.5732 43.488 13.5058 43.488ZM9.70768 40.0694L13.4773 42.896L18.8921 37.1625L16.7029 34.9733C16.6044 34.8748 16.6044 34.7142 16.7029 34.6157L18.8597 32.4589L16.392 30.6077C16.335 30.565 16.2987 30.5015 16.2922 30.4303C16.2858 30.359 16.3078 30.2891 16.3544 30.2373L18.8973 27.377L17.1822 25.6619L14.7714 27.1684V38.8452C14.7714 38.8582 14.7507 40.1109 12.9553 40.1109C11.2453 40.1109 11.2259 38.8569 11.2259 38.8452V27.4845L9.70638 26.2189V40.0694H9.70768Z" fill="#094DBA"/>
<path d="M3.20828 9.21894C3.09429 9.21894 2.99195 9.14252 2.96345 9.02722C2.95568 8.99872 2.27559 6.12681 5.10087 4.36246C7.38727 2.93363 9.45733 4.46091 10.1996 5.13711C10.3602 4.75885 10.6634 4.17204 11.1375 3.71994C11.4276 3.44272 11.7826 3.24064 12.0948 3.06187C12.3862 2.89606 12.7477 2.68879 12.7477 2.55278C12.7477 2.41287 12.8617 2.30017 13.0003 2.30017C13.1389 2.30017 13.2529 2.41417 13.2529 2.55278C13.2529 2.98285 12.8124 3.23546 12.3448 3.50231C12.0572 3.66683 11.7321 3.85207 11.4859 4.08654C10.8369 4.70574 10.5429 5.65528 10.5403 5.66564C10.5131 5.75373 10.4418 5.81979 10.3512 5.83922C10.2605 5.85866 10.1685 5.82757 10.1076 5.75891C10.0169 5.65528 7.85102 3.24193 5.36773 4.79383C2.86241 6.35739 3.4285 8.80182 3.45441 8.90546C3.48809 9.04147 3.40518 9.17879 3.26917 9.21117C3.24844 9.21635 3.22771 9.21894 3.20828 9.21894Z" fill="#094DBA"/>
<path d="M22.7168 9.21914C22.6961 9.21914 22.6766 9.21655 22.6559 9.21137C22.5199 9.17769 22.4383 9.04037 22.4707 8.90565C22.4966 8.80202 23.0614 6.35758 20.556 4.79273C18.074 3.24083 15.9068 5.65418 15.8161 5.75781C15.7553 5.82647 15.662 5.85756 15.5726 5.83813C15.4832 5.8187 15.4107 5.75263 15.3835 5.66454C15.3809 5.65547 15.0829 4.70205 14.4378 4.08544C14.193 3.85097 13.8666 3.66443 13.579 3.50121C13.1113 3.23436 12.6709 2.98305 12.6709 2.55168C12.6709 2.41177 12.7849 2.29907 12.9235 2.29907C13.0634 2.29907 13.1761 2.41307 13.1761 2.55168C13.1761 2.68769 13.5375 2.89496 13.829 3.06077C14.1412 3.23954 14.4961 3.44162 14.7863 3.71884C15.2591 4.17094 15.5622 4.75776 15.7242 5.13602C16.4664 4.46111 18.5365 2.93382 20.8229 4.36136C23.6469 6.127 22.9668 8.99763 22.9603 9.02613C22.9331 9.14271 22.8295 9.21914 22.7168 9.21914Z" fill="#094DBA"/>
<path d="M12.9259 25.0878C12.786 25.0878 12.6733 24.9738 12.6733 24.8352C12.6733 24.4052 13.1151 24.1526 13.5814 23.8857C13.869 23.7212 14.1941 23.5359 14.4403 23.3015C15.0854 22.6849 15.3833 21.7327 15.3859 21.7224C15.4131 21.6343 15.4857 21.5682 15.5751 21.5488C15.6644 21.5294 15.7577 21.5604 15.8186 21.6291C15.9093 21.7327 18.0752 24.1448 20.5585 22.5942C23.0638 21.028 22.4977 18.5836 22.4731 18.48C22.4394 18.344 22.5223 18.2066 22.6583 18.1743C22.7957 18.1406 22.9317 18.2235 22.9654 18.3582C22.9731 18.3867 23.6532 21.2586 20.8279 23.023C18.5415 24.4531 16.4715 22.9245 15.7292 22.2496C15.5686 22.6279 15.2655 23.2147 14.7913 23.6668C14.5012 23.944 14.1475 24.1461 13.834 24.3249C13.5426 24.4907 13.1811 24.6979 13.1811 24.8339C13.1798 24.9738 13.0658 25.0878 12.9259 25.0878Z" fill="#094DBA"/>
<path d="M13.0015 25.0887C12.8616 25.0887 12.7489 24.9748 12.7489 24.8361C12.7489 24.7001 12.3875 24.4929 12.096 24.327C11.7838 24.1483 11.4289 23.9462 11.14 23.669C10.6659 23.2169 10.3628 22.6288 10.2022 22.2505C9.45989 22.9267 7.38983 24.454 5.10343 23.0252C2.27945 21.2595 2.95954 18.3889 2.96601 18.3604C2.99969 18.2257 3.13571 18.1428 3.27302 18.1765C3.40904 18.2101 3.49065 18.3474 3.45827 18.4822C3.43236 18.5858 2.86756 21.0302 5.37288 22.5964C7.85618 24.1483 10.0221 21.7349 10.1128 21.6313C10.1737 21.5626 10.2669 21.5316 10.3563 21.551C10.4457 21.5704 10.5182 21.6365 10.5454 21.7246C10.548 21.7336 10.846 22.6871 11.4911 23.3037C11.7359 23.5381 12.0624 23.7234 12.3499 23.8879C12.8176 24.1548 13.258 24.4074 13.258 24.8374C13.2541 24.9748 13.1414 25.0887 13.0015 25.0887Z" fill="#094DBA"/>
<path d="M20.7638 17.9984C20.6239 17.9984 20.5112 17.8844 20.5112 17.7458C20.5112 17.6059 20.6252 17.4932 20.7638 17.4932C23.6863 17.4932 24.9001 15.019 24.9001 13.6951C24.9001 12.3712 23.6863 9.89693 20.7638 9.89693C20.6239 9.89693 20.5112 9.78294 20.5112 9.64433C20.5112 9.50442 20.6252 9.39172 20.7638 9.39172C24.0438 9.39172 25.4066 12.195 25.4066 13.6964C25.4066 15.1977 24.0451 17.9984 20.7638 17.9984Z" fill="#094DBA"/>
<path d="M20.7647 9.89423C20.7168 9.89423 20.6676 9.87998 20.6248 9.85148C20.5082 9.77376 20.4771 9.61701 20.5549 9.50043C21.1559 8.59882 20.7194 7.3358 20.2349 6.76582C19.604 6.02485 18.3332 5.87847 17.4692 6.16734C17.3371 6.21268 17.1933 6.14014 17.1492 6.00671C17.1052 5.87458 17.1765 5.73079 17.3099 5.68675C18.319 5.34994 19.823 5.49891 20.6209 6.43808C21.222 7.14538 21.7298 8.65064 20.9759 9.78153C20.9267 9.85537 20.8463 9.89423 20.7647 9.89423Z" fill="#094DBA"/>
<path d="M17.3888 6.18146C17.2489 6.18146 17.1362 6.06746 17.1362 5.92885V5.25395C17.1362 5.11404 17.2502 5.00134 17.3888 5.00134C17.5274 5.00134 17.6414 5.11534 17.6414 5.25395V5.92885C17.6427 6.06746 17.5287 6.18146 17.3888 6.18146Z" fill="#094DBA"/>
<path d="M18.3721 21.8623C17.9926 21.8623 17.626 21.804 17.3073 21.6977C17.1752 21.6537 17.1026 21.5099 17.1467 21.3778C17.1907 21.2456 17.3345 21.1731 17.4666 21.2171C18.3307 21.5047 19.6015 21.3596 20.2323 20.6187C20.7168 20.0487 21.1534 18.787 20.5523 17.8841C20.4746 17.7675 20.5057 17.6107 20.6223 17.533C20.7376 17.4553 20.8956 17.4864 20.9733 17.603C21.7272 18.7338 21.2194 20.2391 20.6184 20.9464C20.073 21.5902 19.1947 21.8623 18.3721 21.8623Z" fill="#094DBA"/>
<path d="M17.3864 22.387C17.2465 22.387 17.1338 22.273 17.1338 22.1344V21.4595C17.1338 21.3196 17.2478 21.2069 17.3864 21.2069C17.525 21.2069 17.639 21.3209 17.639 21.4595V22.1344C17.6403 22.273 17.5263 22.387 17.3864 22.387Z" fill="#094DBA"/>
<path d="M21.4364 16.6473C21.3185 16.6473 21.2123 16.5644 21.1889 16.4439C21.1617 16.3066 21.2498 16.1732 21.3871 16.146C22.4248 15.9387 23.1217 14.9529 23.1217 13.6938C23.1217 12.7779 22.1812 11.8284 21.2524 11.3647C21.1268 11.3025 21.0762 11.1496 21.1397 11.0253C21.2019 10.9009 21.3548 10.8491 21.4791 10.9126C22.5141 11.4294 23.6282 12.5215 23.6282 13.6951C23.6282 15.2029 22.7667 16.3882 21.4856 16.6447C21.47 16.646 21.4532 16.6473 21.4364 16.6473Z" fill="#094DBA"/>
<path d="M21.3703 11.3901C21.3055 11.3901 21.2407 11.3655 21.1915 11.3162C21.0931 11.2178 21.0931 11.0572 21.1915 10.9587L21.6695 10.4807C21.768 10.3822 21.9286 10.3822 22.0271 10.4807C22.1255 10.5791 22.1255 10.7398 22.0271 10.8382L21.549 11.3162C21.4998 11.3655 21.435 11.3901 21.3703 11.3901Z" fill="#094DBA"/>
<path d="M21.8483 17.1302C21.7835 17.1302 21.7187 17.1056 21.6695 17.0563L21.1915 16.5783C21.0931 16.4799 21.0931 16.3193 21.1915 16.2208C21.29 16.1224 21.4506 16.1224 21.549 16.2208L22.0271 16.6988C22.1255 16.7973 22.1255 16.9579 22.0271 17.0563C21.9778 17.1056 21.9131 17.1302 21.8483 17.1302Z" fill="#094DBA"/>
<path d="M4.4026 16.647C4.38576 16.647 4.36892 16.6457 4.35208 16.6418C3.07092 16.3854 2.20947 15.2001 2.20947 13.6922C2.20947 12.5186 3.32352 11.4278 4.35855 10.9097C4.48421 10.8475 4.63577 10.898 4.69795 11.0224C4.76013 11.148 4.70961 11.2996 4.58525 11.3618C3.65774 11.8281 2.71727 12.7776 2.71727 13.6935C2.71727 14.9526 3.4142 15.9384 4.45182 16.1457C4.58914 16.1729 4.67852 16.3063 4.65002 16.4436C4.6267 16.5641 4.52048 16.647 4.4026 16.647Z" fill="#094DBA"/>
<path d="M4.47182 11.3901C4.40705 11.3901 4.34228 11.3655 4.29305 11.3162L3.81505 10.8382C3.7166 10.7398 3.7166 10.5791 3.81505 10.4807C3.9135 10.3822 4.07413 10.3822 4.17258 10.4807L4.65059 10.9587C4.74904 11.0572 4.74904 11.2178 4.65059 11.3162C4.60136 11.3655 4.53659 11.3901 4.47182 11.3901Z" fill="#094DBA"/>
<path d="M3.99382 17.1302C3.92905 17.1302 3.86427 17.1056 3.81505 17.0563C3.7166 16.9579 3.7166 16.7973 3.81505 16.6988L4.29305 16.2208C4.3915 16.1224 4.55214 16.1224 4.65059 16.2208C4.74904 16.3193 4.74904 16.4799 4.65059 16.5783L4.17258 17.0563C4.12336 17.1056 4.05859 17.1302 3.99382 17.1302Z" fill="#094DBA"/>
<path d="M5.23503 17.9982C1.95505 17.9982 0.592285 15.1949 0.592285 13.6936C0.592285 12.1922 1.95376 9.38892 5.23503 9.38892C5.37493 9.38892 5.48763 9.50291 5.48763 9.64152C5.48763 9.78143 5.37363 9.89413 5.23503 9.89413C2.31259 9.89413 1.09879 12.3684 1.09879 13.6923C1.09879 15.0162 2.31259 17.4904 5.23503 17.4904C5.37493 17.4904 5.48763 17.6044 5.48763 17.743C5.48763 17.8842 5.37363 17.9982 5.23503 17.9982Z" fill="#094DBA"/>
<path d="M5.23633 9.89423C5.15472 9.89423 5.0744 9.85407 5.02518 9.78153C4.27125 8.65064 4.77905 7.14538 5.38012 6.43808C6.17809 5.49891 7.68206 5.34994 8.69118 5.68675C8.82331 5.73079 8.89585 5.87458 8.85181 6.00671C8.80777 6.13884 8.66398 6.21139 8.53185 6.16734C7.66781 5.87976 6.39701 6.02485 5.76615 6.76582C5.28167 7.3358 4.84512 8.59753 5.44619 9.50043C5.52391 9.61701 5.49282 9.77376 5.37623 9.85148C5.33349 9.88128 5.28426 9.89423 5.23633 9.89423Z" fill="#094DBA"/>
<path d="M8.61198 6.18146C8.47208 6.18146 8.35938 6.06746 8.35938 5.92885V5.25395C8.35938 5.11404 8.47337 5.00134 8.61198 5.00134C8.75188 5.00134 8.86458 5.11534 8.86458 5.25395V5.92885C8.86458 6.06746 8.75188 6.18146 8.61198 6.18146Z" fill="#094DBA"/>
<path d="M7.62636 21.8623C6.80377 21.8623 5.92678 21.5902 5.38012 20.9464C4.77905 20.2391 4.27125 18.7338 5.02518 17.603C5.1029 17.4864 5.25965 17.4553 5.37623 17.533C5.49282 17.6107 5.52391 17.7675 5.44619 17.8841C4.84512 18.7857 5.28167 20.0487 5.76615 20.6187C6.39702 21.3609 7.66781 21.506 8.53185 21.2171C8.66527 21.1731 8.80777 21.2443 8.85181 21.3778C8.89586 21.5099 8.82461 21.6537 8.69118 21.6977C8.37251 21.804 8.00462 21.8623 7.62636 21.8623Z" fill="#094DBA"/>
<path d="M8.61198 22.387C8.47208 22.387 8.35938 22.273 8.35938 22.1344V21.4595C8.35938 21.3196 8.47337 21.2069 8.61198 21.2069C8.75189 21.2069 8.86459 21.3209 8.86459 21.4595V22.1344C8.86459 22.273 8.75189 22.387 8.61198 22.387Z" fill="#094DBA"/>
<path d="M9.62214 3.81646C9.59493 3.81646 9.56773 3.81258 9.54053 3.80351C9.40839 3.75817 9.33715 3.61697 9.38119 3.48484C9.39674 3.43821 9.78018 2.33581 11.2479 1.96921C12.4358 1.67256 12.7454 0.81889 12.7583 0.782619C12.8037 0.651783 12.9462 0.57924 13.0796 0.625875C13.2117 0.671214 13.283 0.812413 13.2389 0.944545C13.2234 0.99118 12.8399 2.09357 11.3722 2.46017C10.1843 2.75682 9.87474 3.61049 9.86179 3.64677C9.82552 3.7504 9.72706 3.81646 9.62214 3.81646Z" fill="#094DBA"/>
<path d="M16.3754 3.81735C16.2705 3.81735 16.172 3.75129 16.1358 3.64507C16.1228 3.6075 15.8132 2.75512 14.6253 2.45847C13.1563 2.09187 12.7742 0.98948 12.7586 0.942845C12.7146 0.810714 12.7858 0.666923 12.9193 0.62288C13.0514 0.578836 13.1952 0.650083 13.2392 0.78351C13.2509 0.818486 13.5605 1.67086 14.7484 1.96881C16.2174 2.33541 16.5995 3.4378 16.6151 3.48444C16.6591 3.61657 16.5879 3.76036 16.4544 3.8044C16.4298 3.81347 16.4026 3.81735 16.3754 3.81735Z" fill="#094DBA"/>
<path d="M12.9996 26.7745C12.9724 26.7745 12.9452 26.7693 12.918 26.7616C12.7858 26.7162 12.7146 26.575 12.7586 26.4429C12.7742 26.3962 13.1576 25.2939 14.6253 24.9273C15.8132 24.6306 16.1228 23.7769 16.1358 23.7407C16.1811 23.6085 16.3249 23.5386 16.457 23.5826C16.5892 23.628 16.6604 23.7692 16.6164 23.9013C16.6008 23.9479 16.2174 25.0503 14.7497 25.4169C13.5618 25.7136 13.2522 26.5672 13.2392 26.6035C13.203 26.7084 13.1045 26.7745 12.9996 26.7745Z" fill="#094DBA"/>
<path d="M12.9981 26.7758C12.8919 26.7758 12.7935 26.7085 12.7585 26.6023C12.7468 26.5673 12.4372 25.7149 11.2493 25.417C9.78034 25.0504 9.39819 23.948 9.38265 23.9013C9.3386 23.7679 9.40985 23.6254 9.54328 23.5814C9.67541 23.5386 9.8179 23.6086 9.86324 23.7407C9.8762 23.7783 10.1858 24.6294 11.3737 24.9273C12.8427 25.2939 13.2248 26.3963 13.2404 26.4429C13.2844 26.5764 13.2132 26.7188 13.0797 26.7629C13.0512 26.772 13.024 26.7758 12.9981 26.7758Z" fill="#094DBA"/>
<path d="M12.9969 17.322C10.9955 17.322 9.36719 15.6936 9.36719 13.6922C9.36719 11.6908 10.9955 10.0625 12.9969 10.0625C14.9983 10.0625 16.6267 11.6908 16.6267 13.6922C16.6267 15.6936 14.9983 17.322 12.9969 17.322ZM12.9969 10.5703C11.2753 10.5703 9.87369 11.9706 9.87369 13.6935C9.87369 15.4164 11.274 16.8168 12.9969 16.8168C14.7198 16.8168 16.1201 15.4164 16.1201 13.6935C16.1201 11.9706 14.7185 10.5703 12.9969 10.5703Z" fill="#094DBA"/>
<path d="M13.6754 10.5703C13.6546 10.5703 13.6339 10.5677 13.6132 10.5625C13.4772 10.5288 13.3956 10.3915 13.4292 10.2555C13.6404 9.40828 13.2479 8.6971 12.9992 8.35252C12.7517 8.6958 12.3579 9.40828 12.5691 10.2555C12.6028 10.3915 12.5212 10.5288 12.3851 10.5625C12.2491 10.5962 12.1118 10.5133 12.0781 10.3785C11.7102 8.90566 12.7751 7.82011 12.8204 7.77477C12.9188 7.67631 13.0795 7.67631 13.1779 7.77477C13.2233 7.82011 14.2881 8.90566 13.9202 10.3785C13.893 10.4925 13.7894 10.5703 13.6754 10.5703Z" fill="#094DBA"/>
<path d="M12.9991 7.61544C13.3719 7.61544 13.674 7.31327 13.674 6.94053C13.674 6.56779 13.3719 6.26562 12.9991 6.26562C12.6264 6.26562 12.3242 6.56779 12.3242 6.94053C12.3242 7.31327 12.6264 7.61544 12.9991 7.61544Z" fill="#094DBA"/>
<path d="M12.9992 19.6858C12.9344 19.6858 12.8696 19.6612 12.8204 19.612C12.7751 19.5667 11.7102 18.4811 12.0781 17.0082C12.1118 16.8722 12.2478 16.7893 12.3851 16.8243C12.5212 16.858 12.6028 16.9953 12.5691 17.1313C12.3579 17.9785 12.7504 18.6897 12.9992 19.0343C13.2466 18.691 13.6404 17.9785 13.4292 17.1313C13.3956 16.9953 13.4772 16.858 13.6132 16.8243C13.7492 16.7906 13.8865 16.8735 13.9202 17.0082C14.2881 18.4811 13.2233 19.5667 13.1779 19.612C13.1287 19.6612 13.0639 19.6858 12.9992 19.6858Z" fill="#094DBA"/>
<path d="M13.0021 21.12C13.3748 21.12 13.677 20.8178 13.677 20.445C13.677 20.0723 13.3748 19.7701 13.0021 19.7701C12.6293 19.7701 12.3271 20.0723 12.3271 20.445C12.3271 20.8178 12.6293 21.12 13.0021 21.12Z" fill="#094DBA"/>
<path d="M15.3067 11.3916C15.2419 11.3916 15.1772 11.3669 15.1279 11.3177C15.0295 11.2193 15.0282 11.0586 15.1266 10.9589C15.7419 10.3397 15.7679 9.52616 15.7316 9.10386C15.343 9.27226 14.6409 9.68291 14.3882 10.5184C14.3481 10.6532 14.2056 10.7283 14.0735 10.6881C13.94 10.648 13.8636 10.5068 13.9038 10.3734C14.3403 8.91991 15.8106 8.53129 15.8741 8.51575C15.9388 8.5002 16.0075 8.50927 16.0658 8.54425C16.1241 8.57922 16.1655 8.63492 16.1811 8.69969C16.1966 8.76187 16.5555 10.2399 15.4855 11.3164C15.4362 11.3656 15.3715 11.3916 15.3067 11.3916Z" fill="#094DBA"/>
<path d="M16.4527 8.56612C16.8255 8.56612 17.1276 8.26396 17.1276 7.89122C17.1276 7.51847 16.8255 7.21631 16.4527 7.21631C16.08 7.21631 15.7778 7.51847 15.7778 7.89122C15.7778 8.26396 16.08 8.56612 16.4527 8.56612Z" fill="#094DBA"/>
<path d="M10.0605 18.8777C10.0152 18.8777 9.97116 18.8661 9.931 18.8428C9.87271 18.8078 9.83125 18.7521 9.81571 18.6873C9.80016 18.6251 9.44133 17.1471 10.5113 16.0706C10.6098 15.9721 10.7704 15.9708 10.8702 16.0693C10.9686 16.1677 10.9699 16.3284 10.8715 16.4281C10.2561 17.0473 10.2302 17.8608 10.2665 18.2831C10.6551 18.1147 11.3572 17.7041 11.6099 16.8686C11.65 16.7351 11.7925 16.66 11.9246 16.6989C12.0581 16.739 12.1345 16.8802 12.0943 17.0136C11.6578 18.4671 10.1875 18.8557 10.124 18.8713C10.102 18.8751 10.0813 18.8777 10.0605 18.8777Z" fill="#094DBA"/>
<path d="M9.54063 20.169C9.91337 20.169 10.2155 19.8669 10.2155 19.4941C10.2155 19.1214 9.91337 18.8192 9.54063 18.8192C9.16789 18.8192 8.86572 19.1214 8.86572 19.4941C8.86572 19.8669 9.16789 20.169 9.54063 20.169Z" fill="#094DBA"/>
<path d="M16.2828 12.9109C16.1701 12.9109 16.0677 12.8358 16.0379 12.7218C16.0017 12.5871 16.0833 12.4485 16.218 12.4122C17.0678 12.1881 17.4992 11.5015 17.6792 11.1194C17.2582 11.0675 16.4434 11.065 15.8035 11.6595C15.7011 11.7541 15.5405 11.7489 15.4459 11.6466C15.3514 11.5443 15.3566 11.3836 15.4589 11.2891C16.5716 10.2566 18.0368 10.666 18.0976 10.6841C18.2324 10.723 18.3088 10.8642 18.2699 10.9976C18.2518 11.0598 17.8139 12.5158 16.3462 12.9018C16.3255 12.9083 16.3035 12.9109 16.2828 12.9109Z" fill="#094DBA"/>
<path d="M18.9147 11.1142C19.2874 11.1142 19.5896 10.8121 19.5896 10.4393C19.5896 10.0666 19.2874 9.7644 18.9147 9.7644C18.5419 9.7644 18.2397 10.0666 18.2397 10.4393C18.2397 10.8121 18.5419 11.1142 18.9147 11.1142Z" fill="#094DBA"/>
<path d="M8.67273 16.7972C8.23877 16.7972 7.92787 16.7104 7.90067 16.7026C7.76594 16.6638 7.68952 16.5226 7.72838 16.3892C7.74651 16.327 8.18436 14.8709 9.65206 14.4849C9.78678 14.4486 9.92539 14.5289 9.96166 14.665C9.99793 14.7997 9.91632 14.9383 9.7816 14.9746C8.93181 15.1987 8.50044 15.8852 8.32038 16.2674C8.74139 16.3192 9.5549 16.3218 10.1961 15.7272C10.2985 15.6326 10.4591 15.6378 10.5537 15.7402C10.6482 15.8425 10.643 16.0031 10.5407 16.0977C9.92539 16.6664 9.20514 16.7972 8.67273 16.7972Z" fill="#094DBA"/>
<path d="M7.08116 17.6209C7.4539 17.6209 7.75606 17.3188 7.75606 16.946C7.75606 16.5733 7.4539 16.2711 7.08116 16.2711C6.70842 16.2711 6.40625 16.5733 6.40625 16.946C6.40625 17.3188 6.70842 17.6209 7.08116 17.6209Z" fill="#094DBA"/>
<path d="M16.9899 14.8385C16.7645 14.8385 16.5249 14.8087 16.2762 14.7362C16.1414 14.6973 16.065 14.5574 16.1039 14.4227C16.1427 14.288 16.2839 14.2102 16.4174 14.2504C17.2568 14.4939 17.9822 14.1273 18.3346 13.8916C18.0003 13.6312 17.3034 13.2115 16.4497 13.3915C16.3137 13.42 16.179 13.3332 16.1492 13.1959C16.1207 13.0586 16.2075 12.9252 16.3448 12.8954C17.8281 12.5819 18.8747 13.6869 18.9188 13.7335C19.0134 13.8359 19.0082 13.9965 18.9058 14.091C18.867 14.1286 18.0871 14.8385 16.9899 14.8385Z" fill="#094DBA"/>
<path d="M19.7462 14.6193C20.1189 14.6193 20.4211 14.3172 20.4211 13.9444C20.4211 13.5717 20.1189 13.2695 19.7462 13.2695C19.3735 13.2695 19.0713 13.5717 19.0713 13.9444C19.0713 14.3172 19.3735 14.6193 19.7462 14.6193Z" fill="#094DBA"/>
<path d="M9.12095 14.5444C7.9227 14.5444 7.11566 13.6921 7.0768 13.6506C6.98223 13.5483 6.98741 13.3876 7.08975 13.2931C7.13638 13.249 8.26209 12.2257 9.71943 12.6493C9.85415 12.6881 9.93058 12.828 9.89172 12.9627C9.85285 13.0975 9.71166 13.1739 9.57823 13.135C8.7388 12.8915 8.01338 13.2581 7.66102 13.4939C7.99524 13.7542 8.69217 14.174 9.54584 13.9939C9.68316 13.9667 9.81658 14.0522 9.84638 14.1895C9.87488 14.3268 9.78808 14.4602 9.65077 14.49C9.46682 14.5276 9.29065 14.5444 9.12095 14.5444Z" fill="#094DBA"/>
<path d="M6.25059 14.1153C6.62333 14.1153 6.9255 13.8132 6.9255 13.4404C6.9255 13.0677 6.62333 12.7655 6.25059 12.7655C5.87785 12.7655 5.57568 13.0677 5.57568 13.4404C5.57568 13.8132 5.87785 14.1153 6.25059 14.1153Z" fill="#094DBA"/>
<path d="M17.3302 16.8244C16.7952 16.8244 16.0646 16.6923 15.4479 16.1132C15.3456 16.0174 15.3417 15.8567 15.4363 15.7557C15.5321 15.6533 15.6928 15.6495 15.7938 15.744C16.4299 16.3425 17.2447 16.3451 17.6644 16.2959C17.4856 15.9124 17.0555 15.222 16.2122 14.994C16.0775 14.9577 15.9972 14.8178 16.0335 14.6831C16.0697 14.5484 16.2096 14.468 16.3444 14.5043C17.8095 14.9007 18.2383 16.3593 18.2564 16.4215C18.294 16.5562 18.2162 16.6962 18.0815 16.7337C18.0556 16.7415 17.7538 16.8244 17.3302 16.8244Z" fill="#094DBA"/>
<path d="M18.8981 17.6597C19.2708 17.6597 19.573 17.3576 19.573 16.9848C19.573 16.6121 19.2708 16.3099 18.8981 16.3099C18.5253 16.3099 18.2231 16.6121 18.2231 16.9848C18.2231 17.3576 18.5253 17.6597 18.8981 17.6597Z" fill="#094DBA"/>
<path d="M9.72436 12.8904C9.70233 12.8904 9.68031 12.8879 9.65829 12.8814C8.19318 12.485 7.7644 11.0264 7.74627 10.9642C7.7087 10.8294 7.78642 10.6895 7.92115 10.652C7.98333 10.6338 9.44973 10.2349 10.556 11.2738C10.6583 11.3696 10.6622 11.5303 10.5677 11.6313C10.4718 11.7336 10.3112 11.7375 10.2101 11.643C9.57409 11.0458 8.76057 11.0419 8.33956 11.0911C8.51833 11.4746 8.94841 12.165 9.79172 12.393C9.92644 12.4293 10.0068 12.5692 9.97048 12.7039C9.9381 12.8153 9.83576 12.8904 9.72436 12.8904Z" fill="#094DBA"/>
<path d="M7.10557 11.0765C7.47831 11.0765 7.78048 10.7743 7.78048 10.4016C7.78048 10.0289 7.47831 9.72668 7.10557 9.72668C6.73283 9.72668 6.43066 10.0289 6.43066 10.4016C6.43066 10.7743 6.73283 11.0765 7.10557 11.0765Z" fill="#094DBA"/>
<path d="M15.8883 18.905C15.8663 18.905 15.8455 18.9024 15.8235 18.8972C15.7613 18.8804 14.2949 18.4788 13.8713 17.0215C13.8325 16.8867 13.9102 16.7468 14.0436 16.708C14.1784 16.6691 14.3183 16.7468 14.3571 16.8803C14.6007 17.7184 15.2989 18.1355 15.6862 18.3078C15.7277 17.8868 15.7082 17.0733 15.0994 16.4476C15.0022 16.3478 15.0035 16.1872 15.1046 16.0901C15.2043 15.9929 15.365 15.9942 15.4621 16.0952C16.5217 17.1821 16.1487 18.6563 16.1318 18.7184C16.115 18.7832 16.0722 18.8389 16.0152 18.8726C15.9764 18.8933 15.9323 18.905 15.8883 18.905Z" fill="#094DBA"/>
<path d="M16.3995 20.2016C16.7723 20.2016 17.0744 19.8995 17.0744 19.5267C17.0744 19.154 16.7723 18.8518 16.3995 18.8518C16.0268 18.8518 15.7246 19.154 15.7246 19.5267C15.7246 19.8995 16.0268 20.2016 16.3995 20.2016Z" fill="#094DBA"/>
<path d="M10.7178 11.3694C10.6518 11.3694 10.5857 11.3435 10.5365 11.293C9.47683 10.2061 9.84991 8.73194 9.86675 8.66976C9.88359 8.60499 9.92634 8.54929 9.98334 8.51561C10.0416 8.48193 10.1103 8.47286 10.1751 8.4897C10.2372 8.50654 11.7036 8.90812 12.1272 10.3655C12.1661 10.5002 12.0884 10.6401 11.9549 10.6789C11.8202 10.7178 11.6803 10.6401 11.6415 10.5067C11.3979 9.66852 10.6997 9.2514 10.3124 9.07911C10.2709 9.50012 10.2903 10.3136 10.8992 10.9393C10.9963 11.0391 10.995 11.1997 10.894 11.2968C10.8461 11.3448 10.7826 11.3694 10.7178 11.3694Z" fill="#094DBA"/>
<path d="M9.60215 8.53377C9.9749 8.53377 10.2771 8.23161 10.2771 7.85887C10.2771 7.48613 9.9749 7.18396 9.60215 7.18396C9.22941 7.18396 8.92725 7.48613 8.92725 7.85887C8.92725 8.23161 9.22941 8.53377 9.60215 8.53377Z" fill="#094DBA"/>
<path d="M12.9165 21.3738C8.63521 21.3738 5.15186 17.8904 5.15186 13.6091C5.15186 9.32779 8.63521 5.84314 12.9165 5.84314C17.1978 5.84314 20.6812 9.32649 20.6812 13.6078C20.6812 17.8891 17.1978 21.3738 12.9165 21.3738ZM12.9165 6.34964C8.91372 6.34964 5.65706 9.6063 5.65706 13.6091C5.65706 17.6119 8.91372 20.8686 12.9165 20.8686C16.9193 20.8686 20.176 17.6119 20.176 13.6091C20.176 9.6063 16.9193 6.34964 12.9165 6.34964Z" fill="#094DBA"/>
</svg>
