<svg width="24" height="24" viewBox="0 0 24 24" fill="none" xmlns="http://www.w3.org/2000/svg">
<g clip-path="url(#clip0_204_6340)">
<path d="M12.0001 0.75C7.2376 0.75 3.1876 3.7125 1.5376 7.875H22.4626C20.8126 3.7125 16.7626 0.75 12.0001 0.75Z" fill="#42ADE2"/>
<path d="M12.0001 23.25C16.7626 23.25 20.8126 20.2875 22.4626 16.125H1.5376C3.1876 20.2875 7.2376 23.25 12.0001 23.25Z" fill="#83BF4F"/>
<path d="M23.25 12C23.25 10.8375 23.0625 9.675 22.725 8.625H1.275C0.9375 9.675 0.75 10.8375 0.75 12C0.75 13.1625 0.9375 14.325 1.275 15.375H22.725C23.0625 14.325 23.25 13.1625 23.25 12Z" fill="white"/>
<path d="M22.4624 7.875C22.4999 7.9875 22.5749 8.1375 22.6124 8.25C22.6499 8.3625 22.6874 8.5125 22.7249 8.625" fill="#C94747"/>
<path d="M22.6124 8.25C22.5749 8.1375 22.4999 7.9875 22.4624 7.875H1.5374C1.4999 7.9875 1.4249 8.1375 1.3874 8.25C1.3499 8.3625 1.3124 8.5125 1.2749 8.625H22.7249C22.6874 8.5125 22.6499 8.3625 22.6124 8.25ZM1.3874 15.75C1.4249 15.8625 1.4999 16.0125 1.5374 16.125H22.4624C22.4999 16.0125 22.5749 15.8625 22.6124 15.75C22.6499 15.6375 22.6874 15.4875 22.7249 15.375H1.2749C1.3124 15.4875 1.3499 15.6375 1.3874 15.75Z" fill="#C94747"/>
<path d="M8.90635 6.4875C8.00635 6.4875 7.29385 5.775 7.29385 4.875C7.29385 3.975 8.00635 3.2625 8.90635 3.2625C9.13135 3.2625 9.31885 3.3 9.50635 3.375C9.20635 3.15 8.79385 3 8.38135 3C7.33135 3 6.50635 3.825 6.50635 4.875C6.50635 5.925 7.33135 6.75 8.38135 6.75C8.79385 6.75 9.20635 6.6 9.50635 6.375C9.31885 6.45 9.13135 6.4875 8.90635 6.4875ZM10.5188 5.7L10.6688 6.1125H11.0813L10.7438 6.3375L10.8563 6.75L10.5188 6.4875L10.1813 6.75L10.3313 6.3375L9.99385 6.1125H10.4063L10.5188 5.7ZM12.1313 5.7L12.2438 6.1125H12.6938L12.3563 6.3375L12.4688 6.75L12.1313 6.4875L11.7938 6.75L11.9063 6.3375L11.5688 6.1125H11.9813L12.1313 5.7ZM13.7438 5.7L13.8563 6.1125H14.2688L13.9313 6.3375L14.0813 6.75L13.7438 6.4875L13.3688 6.75L13.5188 6.3375L13.1813 6.1125H13.5938L13.7438 5.7ZM15.3188 5.7L15.4688 6.1125H15.8813L15.5438 6.3375L15.6563 6.75L15.3188 6.4875L14.9813 6.75L15.0938 6.3375L14.7563 6.1125H15.2063L15.3188 5.7ZM16.9313 5.7L17.0438 6.1125H17.4938L17.1188 6.3375L17.2688 6.75L16.9313 6.4875L16.5938 6.75L16.7063 6.3375L16.3688 6.1125H16.7813L16.9313 5.7ZM12.1313 4.35L12.2438 4.7625H12.6938L12.3563 4.9875L12.4688 5.4L12.1313 5.1375L11.7938 5.4L11.9063 4.9875L11.5688 4.7625H11.9813L12.1313 4.35ZM13.7438 4.35L13.8563 4.7625H14.2688L13.9313 4.9875L14.0813 5.4L13.7438 5.1375L13.3688 5.4L13.5188 4.9875L13.1813 4.7625H13.5938L13.7438 4.35ZM15.3188 4.35L15.4688 4.7625H15.8813L15.5438 4.9875L15.6563 5.4L15.3188 5.1375L14.9813 5.4L15.0938 4.9875L14.7563 4.7625H15.2063L15.3188 4.35ZM16.9313 4.35L17.0438 4.7625H17.4938L17.1188 4.9875L17.2688 5.4L16.9313 5.1375L16.5938 5.4L16.7063 4.9875L16.3688 4.7625H16.7813L16.9313 4.35ZM13.7438 3L13.8563 3.4125H14.2688L13.9313 3.6375L14.0813 4.05L13.7438 3.7875L13.3688 4.05L13.5188 3.6375L13.1813 3.4125H13.5938L13.7438 3ZM15.3188 3L15.4688 3.4125H15.8813L15.5438 3.6375L15.6563 4.05L15.3188 3.7875L14.9813 4.05L15.0938 3.6375L14.7563 3.4125H15.2063L15.3188 3ZM16.9313 3L17.0438 3.4125H17.4938L17.1188 3.6375L17.2688 4.05L16.9313 3.7875L16.5938 4.05L16.7063 3.6375L16.3688 3.4125H16.7813L16.9313 3Z" fill="white"/>
</g>
<defs>
<clipPath id="clip0_204_6340">
<rect width="24" height="24" fill="white"/>
</clipPath>
</defs>
</svg>
