<svg width="647" height="515" viewBox="0 0 647 515" fill="none" xmlns="http://www.w3.org/2000/svg">
<path d="M69.894 514.313H0.981034C-5.76842 435.86 30.0794 398.149 90.807 398.149C97.5976 398.149 104.698 398.62 112.085 399.559C117.949 400.304 123.249 400.66 128.033 400.66C197.455 400.66 159.06 325.74 186.87 277.549C186.889 277.598 186.912 277.66 186.93 277.71C186.97 277.822 187.011 277.934 187.053 278.046C187.072 278.095 187.085 278.133 187.102 278.182C225.229 382.471 183.046 430.165 142.189 430.183C142.184 430.183 142.174 430.183 142.169 430.183H142.168C138.19 430.183 134.225 429.73 130.349 428.836C125.218 427.651 120.124 427.054 115.164 427.054H115.162C115.159 427.054 115.152 427.054 115.15 427.054C81.1773 427.057 53.8936 455.092 69.8934 514.313H69.894ZM644.495 141.542C644.468 141.491 644.432 141.425 644.404 141.374V141.372C644.369 141.309 644.346 141.266 644.312 141.203L644.307 141.194C644.273 141.131 644.251 141.09 644.216 141.027L644.213 141.022C644.029 140.681 643.832 140.318 643.645 139.977L643.644 139.974C643.485 139.683 643.326 139.395 643.168 139.104L643.163 139.096C643.136 139.046 643.101 138.983 643.073 138.932L643.067 138.922C643.032 138.858 643.009 138.818 642.974 138.754L642.973 138.751C642.813 138.462 642.653 138.17 642.492 137.88L642.491 137.878C642.462 137.828 642.424 137.756 642.396 137.706L642.395 137.703C642.199 137.35 642.012 137.014 641.815 136.661L641.81 136.652C641.773 136.589 641.751 136.548 641.716 136.485L641.713 136.481C641.586 136.255 641.452 136.013 641.324 135.787L641.32 135.78C641.285 135.718 641.264 135.68 641.228 135.616L641.22 135.603C641.192 135.552 641.157 135.491 641.129 135.44L641.124 135.433C640.961 135.143 640.801 134.859 640.638 134.569L640.628 134.555C640.6 134.504 640.566 134.446 640.537 134.395L640.532 134.385C640.496 134.322 640.473 134.283 640.439 134.22L640.433 134.213C640.305 133.986 640.17 133.747 640.04 133.52L640.035 133.512C639.999 133.448 639.978 133.412 639.941 133.349L639.935 133.336C639.906 133.286 639.871 133.226 639.843 133.175L639.836 133.164C639.677 132.887 639.5 132.578 639.34 132.302L639.335 132.292C639.307 132.242 639.273 132.183 639.244 132.133L639.233 132.115C639.204 132.064 639.172 132.009 639.143 131.959L639.135 131.944C638.968 131.655 638.806 131.375 638.638 131.085L638.629 131.068C638.599 131.017 638.567 130.964 638.538 130.913L638.529 130.898C638.367 130.62 638.19 130.317 638.028 130.04C638.024 130.034 638.022 130.029 638.018 130.021C637.988 129.972 637.959 129.921 637.93 129.872C637.922 129.857 637.925 129.863 637.917 129.848C637.887 129.797 637.855 129.743 637.826 129.693L637.818 129.682C637.686 129.455 637.546 129.216 637.413 128.99L637.41 128.987C637.374 128.924 637.35 128.884 637.313 128.821L637.305 128.807C637.274 128.756 637.242 128.703 637.213 128.652C637.209 128.644 637.206 128.64 637.202 128.633C637.171 128.583 637.136 128.523 637.106 128.472L637.102 128.465C636.969 128.239 636.83 128.004 636.696 127.779C636.692 127.771 636.689 127.767 636.685 127.759C636.654 127.709 636.623 127.657 636.594 127.608L636.582 127.588C636.553 127.537 636.52 127.482 636.49 127.432L636.483 127.419C636.348 127.192 636.208 126.959 636.073 126.734C636.069 126.725 636.066 126.723 636.063 126.716C636.033 126.665 636.002 126.616 635.973 126.567C635.964 126.552 635.965 126.553 635.955 126.539C635.926 126.487 635.9 126.444 635.87 126.395C635.865 126.386 635.86 126.377 635.856 126.369C635.825 126.32 635.791 126.264 635.762 126.213L635.755 126.203C635.649 126.027 635.548 125.86 635.443 125.685L635.442 125.682C635.411 125.633 635.372 125.569 635.343 125.518C635.338 125.511 635.335 125.505 635.33 125.497C635.301 125.448 635.27 125.397 635.239 125.346L635.228 125.327C635.198 125.276 635.165 125.222 635.134 125.172L635.125 125.157C634.989 124.931 634.848 124.698 634.71 124.471L634.702 124.459C634.664 124.397 634.645 124.365 634.606 124.301L634.596 124.283C634.565 124.232 634.535 124.183 634.505 124.133C634.5 124.126 634.494 124.118 634.49 124.109C634.46 124.06 634.426 124.004 634.395 123.954L634.389 123.943C634.28 123.767 634.181 123.603 634.074 123.429L634.067 123.418C634.037 123.368 634.001 123.309 633.97 123.259C633.966 123.251 633.964 123.247 633.958 123.24C633.928 123.189 633.898 123.14 633.867 123.089C633.862 123.083 633.857 123.073 633.853 123.067C633.822 123.016 633.789 122.963 633.758 122.912L633.749 122.899C633.611 122.673 633.468 122.442 633.328 122.216C633.324 122.208 633.321 122.204 633.318 122.197C633.294 122.16 633.248 122.087 633.226 122.048C633.216 122.035 633.218 122.036 633.21 122.022C633.178 121.972 633.151 121.927 633.119 121.878C633.115 121.87 633.109 121.86 633.104 121.852C633.074 121.803 633.039 121.746 633.007 121.696L633.002 121.687C632.894 121.511 632.793 121.35 632.685 121.174C632.68 121.167 632.677 121.162 632.671 121.153C632.641 121.104 632.613 121.058 632.581 121.008C632.573 120.994 632.572 120.992 632.562 120.978C632.532 120.927 632.506 120.887 632.474 120.837C632.466 120.822 632.466 120.823 632.457 120.808C632.426 120.759 632.401 120.719 632.37 120.668C632.365 120.662 632.355 120.645 632.351 120.638C632.242 120.463 632.143 120.305 632.034 120.13L632.029 120.123C631.998 120.072 631.962 120.015 631.93 119.964C631.926 119.958 631.917 119.944 631.913 119.936C631.889 119.899 631.847 119.832 631.824 119.795C631.814 119.781 631.816 119.782 631.806 119.767C631.776 119.716 631.749 119.675 631.717 119.626C631.709 119.611 631.708 119.611 631.699 119.597C631.669 119.547 631.64 119.503 631.61 119.454C631.605 119.446 631.598 119.436 631.594 119.429C631.484 119.253 631.385 119.097 631.274 118.923C631.27 118.915 631.265 118.908 631.261 118.9C631.229 118.85 631.201 118.805 631.169 118.755C631.159 118.74 631.158 118.739 631.15 118.724C631.118 118.673 631.094 118.636 631.062 118.587C631.053 118.572 631.053 118.57 631.043 118.557C631.02 118.518 630.978 118.453 630.954 118.415C630.95 118.408 630.941 118.394 630.935 118.387C630.905 118.336 630.871 118.284 630.839 118.235C630.835 118.226 630.835 118.228 630.831 118.22C630.76 118.108 630.688 117.993 630.615 117.88C630.611 117.873 630.606 117.867 630.602 117.859C630.57 117.809 630.545 117.769 630.513 117.72C630.5 117.697 630.495 117.692 630.482 117.67C630.458 117.633 630.433 117.592 630.409 117.554C630.399 117.54 630.384 117.516 630.374 117.501C630.35 117.464 630.326 117.425 630.302 117.387C630.293 117.373 630.28 117.351 630.27 117.337C630.246 117.299 630.213 117.246 630.189 117.209C630.184 117.2 630.172 117.181 630.167 117.174C630.127 117.111 630.105 117.076 630.065 117.014L630.061 117.01C630.031 116.959 629.985 116.89 629.953 116.839C629.949 116.833 629.945 116.827 629.94 116.819C629.908 116.77 629.88 116.723 629.848 116.674C629.842 116.667 629.828 116.643 629.823 116.635C629.798 116.598 629.766 116.547 629.741 116.508C629.733 116.495 629.721 116.477 629.713 116.463C629.689 116.426 629.659 116.381 629.636 116.343C629.626 116.329 629.613 116.308 629.603 116.294C629.58 116.257 629.551 116.213 629.527 116.175C629.518 116.161 629.507 116.144 629.498 116.13C629.466 116.081 629.439 116.038 629.406 115.988C629.402 115.981 629.398 115.976 629.394 115.967C629.321 115.856 629.252 115.746 629.178 115.634C629.174 115.626 629.158 115.601 629.153 115.595C629.121 115.543 629.106 115.521 629.074 115.47C629.06 115.449 629.051 115.437 629.038 115.414C629.013 115.377 628.993 115.346 628.969 115.309C628.956 115.288 628.942 115.268 628.929 115.247C628.904 115.21 628.886 115.18 628.86 115.143C628.847 115.122 628.838 115.107 628.823 115.086C628.799 115.047 628.772 115.004 628.747 114.967C628.734 114.945 628.732 114.944 628.719 114.923C628.686 114.871 628.661 114.833 628.628 114.784C628.624 114.777 628.616 114.765 628.612 114.757C628.579 114.708 628.536 114.641 628.504 114.592C628.499 114.583 628.492 114.574 628.488 114.566C628.456 114.517 628.431 114.478 628.399 114.429C628.385 114.406 628.379 114.398 628.365 114.377C628.34 114.34 628.317 114.304 628.292 114.266C628.279 114.245 628.268 114.228 628.254 114.206C628.23 114.169 628.21 114.138 628.186 114.101C628.176 114.088 628.155 114.056 628.145 114.041C628.122 114.004 628.104 113.975 628.079 113.938C628.065 113.917 628.052 113.895 628.037 113.875C628.014 113.837 627.992 113.804 627.967 113.766C627.958 113.752 627.941 113.728 627.932 113.713C627.9 113.663 627.868 113.615 627.837 113.564C627.827 113.55 627.827 113.553 627.817 113.538C627.786 113.487 627.754 113.439 627.72 113.389C627.707 113.367 627.7 113.356 627.685 113.335C627.662 113.298 627.638 113.262 627.612 113.225C627.599 113.202 627.59 113.188 627.576 113.167C627.551 113.13 627.529 113.097 627.506 113.059C627.491 113.037 627.479 113.02 627.466 112.998C627.45 112.973 627.416 112.922 627.4 112.897C627.386 112.876 627.371 112.853 627.356 112.832C627.332 112.794 627.312 112.764 627.287 112.727C627.272 112.705 627.266 112.693 627.251 112.672C627.21 112.609 627.188 112.576 627.147 112.513C627.114 112.462 627.069 112.394 627.037 112.344C627.031 112.338 627.021 112.321 627.016 112.315C626.983 112.264 626.962 112.232 626.928 112.181C626.915 112.16 626.908 112.151 626.894 112.129C626.87 112.091 626.846 112.057 626.822 112.019C626.807 111.997 626.795 111.978 626.781 111.957C626.764 111.931 626.731 111.882 626.715 111.857C626.701 111.835 626.685 111.812 626.671 111.79C626.646 111.753 626.632 111.73 626.606 111.693C626.593 111.671 626.577 111.649 626.564 111.627C626.538 111.59 626.52 111.561 626.494 111.524C626.481 111.502 626.471 111.486 626.456 111.465C626.423 111.414 626.383 111.355 626.349 111.304C626.242 111.143 626.142 110.993 626.036 110.832C625.919 110.655 625.788 110.459 625.671 110.281C589.686 56.2505 560.179 30.5691 534.831 22.112C541.008 14.1668 548.28 6.7803 556.307 0.132324H644.496V141.54L644.495 141.542Z" fill="#EEF2F6"/>
<path d="M69.9002 514.313C69.9002 514.313 69.9002 514.313 69.9002 514.313C51.5721 446.456 90.0765 419.535 130.349 428.836C174.176 438.957 229.253 392.397 186.758 277.243C144.264 162.089 267.61 84.7891 354.172 110.529C386.023 120 411.532 92.8172 438.323 65.6345C484.34 18.9425 534.139 -27.7467 626.348 111.307C631.448 118.997 636.18 126.735 640.581 134.504C643.197 139.123 644.495 144.36 644.495 149.668V482.313C644.495 499.987 630.168 514.313 612.495 514.313H69.9007C69.9005 514.313 69.9002 514.313 69.9002 514.313Z" fill="#F8F9FE"/>
<path d="M69.8944 514.313C53.8946 455.092 81.1782 427.057 115.151 427.054C81.1822 427.061 53.8957 455.095 69.8944 514.313ZM142.19 430.182C183.047 430.165 225.23 382.47 187.103 278.181C225.233 382.478 183.05 430.171 142.19 430.182Z" fill="#CCECFB"/>
<path d="M186.625 276.881C186.605 276.825 186.584 276.765 186.563 276.709C186.584 276.765 186.606 276.825 186.625 276.881ZM186.46 276.427C150.288 176.709 238.493 105.578 318.898 105.572C238.497 105.588 150.289 176.716 186.46 276.427Z" fill="#E1F3FC"/>
<path d="M643.168 139.104C643.161 139.093 643.169 139.108 643.163 139.096L643.168 139.104ZM640.638 134.569C640.63 134.558 640.635 134.567 640.628 134.555L640.638 134.569ZM639.843 133.174C639.835 133.162 639.843 133.177 639.837 133.163L639.843 133.174ZM639.34 132.301C639.334 132.287 639.343 132.304 639.335 132.291L639.34 132.301ZM639.143 131.958C639.136 131.945 639.141 131.955 639.135 131.943L639.143 131.958ZM638.538 130.913C638.531 130.901 638.535 130.909 638.528 130.897L638.538 130.913ZM638.028 130.04C638.021 130.028 638.025 130.034 638.017 130.021C638.021 130.029 638.023 130.033 638.028 130.04ZM637.929 129.872L637.916 129.847C637.924 129.862 637.921 129.857 637.929 129.872ZM637.826 129.693C637.818 129.68 637.826 129.693 637.818 129.681L637.826 129.693ZM637.212 128.652C637.205 128.639 637.208 128.645 637.202 128.633C637.205 128.64 637.208 128.644 637.212 128.652ZM636.695 127.779C636.688 127.766 636.691 127.773 636.684 127.758C636.688 127.767 636.691 127.77 636.695 127.779ZM636.489 127.433C636.482 127.421 636.488 127.432 636.482 127.42L636.489 127.433ZM636.072 126.734L636.062 126.717C636.065 126.723 636.068 126.726 636.072 126.734ZM635.972 126.567C635.964 126.554 635.963 126.551 635.954 126.539C635.964 126.553 635.963 126.552 635.972 126.567ZM635.869 126.395C635.861 126.382 635.861 126.383 635.855 126.369C635.859 126.378 635.864 126.387 635.869 126.395ZM635.342 125.519C635.334 125.507 635.337 125.511 635.329 125.497C635.334 125.505 635.337 125.512 635.342 125.519ZM635.133 125.173C635.125 125.16 635.132 125.17 635.124 125.157L635.133 125.173ZM634.504 124.135C634.496 124.122 634.497 124.124 634.489 124.11C634.493 124.119 634.499 124.127 634.504 124.135ZM633.969 123.26C633.961 123.247 633.965 123.253 633.957 123.241C633.962 123.248 633.965 123.252 633.969 123.26ZM633.866 123.091L633.852 123.068C633.856 123.075 633.861 123.084 633.866 123.091ZM633.757 122.913C633.748 122.902 633.757 122.913 633.748 122.9L633.757 122.913ZM633.327 122.218C633.319 122.205 633.324 122.211 633.317 122.199C633.321 122.205 633.323 122.21 633.327 122.218ZM633.225 122.05C633.217 122.038 633.215 122.037 633.209 122.023C633.217 122.038 633.215 122.036 633.225 122.05ZM633.118 121.88C633.111 121.867 633.111 121.868 633.103 121.854C633.109 121.862 633.114 121.872 633.118 121.88ZM632.683 121.175L632.67 121.155C632.676 121.164 632.678 121.169 632.683 121.175ZM632.58 121.01C632.573 120.997 632.569 120.991 632.561 120.98C632.57 120.994 632.571 120.996 632.58 121.01ZM632.473 120.838L632.455 120.81C632.465 120.824 632.465 120.823 632.473 120.838ZM632.35 120.64C632.352 120.643 632.352 120.643 632.35 120.64V120.64ZM631.929 119.967C631.927 119.964 631.927 119.964 631.929 119.967V119.967ZM631.823 119.798C631.815 119.784 631.813 119.781 631.805 119.769C631.815 119.784 631.813 119.783 631.823 119.798ZM631.716 119.628C631.709 119.615 631.706 119.612 631.699 119.599C631.708 119.614 631.708 119.614 631.716 119.628ZM631.609 119.456L631.593 119.43C631.597 119.437 631.604 119.448 631.609 119.456ZM631.273 118.924L631.26 118.902C631.264 118.91 631.27 118.916 631.273 118.924ZM631.168 118.756C631.16 118.744 631.157 118.738 631.149 118.726C631.157 118.74 631.158 118.742 631.168 118.756ZM631.061 118.588C631.053 118.575 631.05 118.569 631.042 118.558C631.052 118.571 631.052 118.574 631.061 118.588ZM630.953 118.416C630.945 118.404 630.943 118.4 630.934 118.388C630.939 118.394 630.949 118.41 630.953 118.416ZM630.838 118.236L630.83 118.222C630.834 118.23 630.834 118.228 630.838 118.236ZM630.614 117.881C630.606 117.869 630.609 117.873 630.601 117.86C630.605 117.868 630.61 117.874 630.614 117.881ZM630.512 117.721C630.504 117.708 630.489 117.684 630.481 117.672C630.494 117.693 630.499 117.699 630.512 117.721ZM630.408 117.555C630.392 117.53 630.389 117.527 630.373 117.502C630.383 117.516 630.399 117.541 630.408 117.555ZM630.301 117.389C630.293 117.377 630.277 117.35 630.269 117.338C630.279 117.352 630.292 117.374 630.301 117.389ZM630.188 117.21C630.18 117.199 630.174 117.188 630.166 117.175C630.171 117.182 630.183 117.202 630.188 117.21ZM629.952 116.841C629.944 116.829 629.947 116.835 629.939 116.821C629.944 116.829 629.949 116.834 629.952 116.841ZM629.847 116.676C629.839 116.664 629.83 116.651 629.822 116.638C629.827 116.645 629.841 116.669 629.847 116.676ZM629.74 116.511C629.734 116.499 629.72 116.479 629.712 116.466C629.72 116.48 629.732 116.497 629.74 116.511ZM629.635 116.345C629.619 116.32 629.619 116.321 629.603 116.296C629.613 116.31 629.626 116.33 629.635 116.345ZM629.527 116.177C629.519 116.163 629.505 116.145 629.498 116.132C629.507 116.146 629.518 116.162 629.527 116.177ZM629.406 115.989L629.394 115.968C629.398 115.976 629.402 115.982 629.406 115.989ZM629.178 115.635C629.169 115.622 629.16 115.607 629.153 115.596C629.158 115.602 629.174 115.627 629.178 115.635ZM629.074 115.471C629.066 115.459 629.045 115.429 629.038 115.415C629.051 115.438 629.059 115.45 629.074 115.471ZM628.969 115.31C628.952 115.285 628.945 115.273 628.929 115.247C628.942 115.269 628.956 115.288 628.969 115.31ZM628.861 115.143C628.853 115.129 628.831 115.098 628.823 115.086C628.838 115.107 628.848 115.122 628.861 115.143ZM628.747 114.967C628.739 114.955 628.727 114.935 628.719 114.923C628.732 114.945 628.734 114.946 628.747 114.967ZM628.628 114.784C628.62 114.773 628.62 114.771 628.612 114.757C628.616 114.765 628.624 114.778 628.628 114.784ZM628.504 114.592C628.496 114.579 628.496 114.58 628.488 114.567C628.492 114.575 628.499 114.584 628.504 114.592ZM628.399 114.429C628.39 114.416 628.373 114.391 628.366 114.377C628.379 114.399 628.385 114.407 628.399 114.429ZM628.292 114.267C628.284 114.255 628.262 114.219 628.254 114.207C628.269 114.228 628.279 114.245 628.292 114.267ZM628.186 114.101C628.17 114.077 628.163 114.067 628.146 114.041C628.155 114.056 628.176 114.088 628.186 114.101ZM628.079 113.939C628.071 113.927 628.046 113.888 628.037 113.875C628.052 113.897 628.066 113.918 628.079 113.939ZM627.967 113.767C627.951 113.743 627.95 113.739 627.933 113.713C627.942 113.728 627.958 113.752 627.967 113.767ZM627.837 113.566L627.818 113.539C627.827 113.553 627.827 113.551 627.837 113.566ZM627.721 113.39C627.704 113.364 627.701 113.362 627.686 113.336C627.7 113.358 627.707 113.368 627.721 113.39ZM627.612 113.226C627.604 113.212 627.584 113.181 627.576 113.168C627.589 113.19 627.599 113.203 627.612 113.226ZM627.506 113.06C627.488 113.036 627.482 113.024 627.466 113C627.479 113.021 627.491 113.038 627.506 113.06ZM627.4 112.899C627.383 112.875 627.374 112.859 627.356 112.833C627.371 112.855 627.386 112.877 627.4 112.899ZM627.287 112.728C627.279 112.715 627.259 112.686 627.251 112.674C627.266 112.695 627.272 112.707 627.287 112.728Z" fill="#CCECFB"/>
<path d="M367.102 112.452C393.135 112.444 415.255 89.0383 438.323 65.6345C415.253 89.0411 393.138 112.448 367.102 112.452Z" fill="#E1F3FC"/>
<path d="M627.036 112.346C627.026 112.334 627.024 112.329 627.016 112.317C627.02 112.323 627.03 112.339 627.036 112.346ZM626.928 112.184C626.92 112.172 626.901 112.144 626.893 112.131C626.907 112.153 626.915 112.162 626.928 112.184ZM626.821 112.023C626.805 111.997 626.796 111.985 626.78 111.96C626.795 111.981 626.807 112 626.821 112.023ZM626.715 111.86C626.697 111.835 626.687 111.819 626.671 111.793C626.684 111.815 626.7 111.838 626.715 111.86ZM626.605 111.696C626.597 111.684 626.57 111.643 626.562 111.631C626.575 111.652 626.592 111.675 626.605 111.696ZM626.493 111.527C626.477 111.502 626.471 111.492 626.455 111.468C626.469 111.49 626.48 111.506 626.493 111.527ZM626.035 110.835C625.918 110.658 625.787 110.462 625.669 110.284C625.787 110.461 625.918 110.657 626.035 110.835Z" fill="#CCECFB"/>
<path d="M438.466 65.4895C438.504 65.4523 438.544 65.4106 438.58 65.3745C438.544 65.4106 438.504 65.4518 438.466 65.4895ZM438.753 65.1986C461.692 41.9375 485.599 18.8184 515.252 18.8162C485.604 18.8241 461.689 41.9397 438.753 65.1986Z" fill="#E1F3FC"/>
<path d="M120.38 514.313H69.8936C53.8949 455.096 81.1814 427.061 115.15 427.054C115.153 427.054 115.16 427.054 115.162 427.054H115.164C120.121 427.054 125.221 427.651 130.349 428.836C134.228 429.732 138.188 430.184 142.168 430.183H142.169C142.174 430.183 142.184 430.183 142.189 430.183C183.049 430.172 225.231 382.479 187.102 278.182C187.085 278.132 187.072 278.095 187.053 278.046C187.012 277.934 186.971 277.822 186.93 277.71C186.873 277.556 186.816 277.398 186.759 277.243C186.715 277.123 186.669 277.002 186.625 276.882C186.605 276.826 186.584 276.766 186.562 276.71C186.526 276.613 186.495 276.525 186.46 276.427C150.289 176.716 238.497 105.588 318.898 105.572C318.903 105.572 318.912 105.572 318.918 105.572H318.921C330.9 105.572 342.703 107.15 353.898 110.449C353.925 110.456 353.962 110.467 353.989 110.475C354.052 110.494 354.109 110.511 354.172 110.53C358.594 111.844 362.89 112.452 367.089 112.452H367.092C367.095 112.452 367.098 112.452 367.102 112.452C393.138 112.448 415.254 89.0416 438.323 65.635C438.371 65.586 438.419 65.5381 438.466 65.4901C438.503 65.4529 438.543 65.4112 438.579 65.3751C438.638 65.3148 438.693 65.259 438.753 65.1992C461.689 41.9403 485.603 18.8247 515.251 18.8168C515.255 18.8168 515.254 18.8168 515.258 18.8168C515.262 18.8168 515.265 18.8168 515.269 18.8168C544.799 18.8258 580.026 41.7515 625.669 110.284C625.786 110.461 625.917 110.658 626.034 110.835C626.141 110.996 626.241 111.146 626.348 111.307C626.381 111.358 626.421 111.418 626.454 111.468C626.47 111.492 626.477 111.502 626.493 111.527C626.517 111.563 626.538 111.595 626.562 111.631C626.57 111.643 626.596 111.684 626.605 111.696C626.629 111.732 626.646 111.758 626.67 111.793C626.686 111.818 626.697 111.835 626.714 111.86C626.732 111.89 626.76 111.931 626.779 111.96C626.795 111.985 626.804 111.997 626.82 112.023C626.844 112.058 626.868 112.096 626.892 112.132C626.9 112.144 626.919 112.172 626.927 112.184C626.956 112.228 626.986 112.275 627.015 112.318C627.023 112.33 627.025 112.335 627.035 112.347C627.072 112.405 627.107 112.459 627.146 112.516C627.179 112.567 627.216 112.625 627.249 112.675C627.257 112.687 627.277 112.717 627.285 112.73C627.31 112.766 627.332 112.799 627.355 112.835C627.372 112.861 627.381 112.877 627.399 112.9C627.418 112.93 627.445 112.973 627.464 113.002C627.48 113.026 627.487 113.038 627.504 113.062C627.527 113.098 627.55 113.134 627.575 113.17C627.582 113.182 627.603 113.214 627.611 113.228C627.635 113.264 627.661 113.302 627.684 113.338C627.7 113.364 627.703 113.367 627.719 113.392C627.748 113.436 627.788 113.497 627.816 113.541L627.835 113.568C627.867 113.619 627.899 113.665 627.931 113.716C627.948 113.742 627.949 113.745 627.965 113.77C627.99 113.806 628.013 113.841 628.036 113.878C628.044 113.891 628.07 113.93 628.077 113.942C628.101 113.978 628.121 114.008 628.144 114.044C628.161 114.07 628.168 114.08 628.184 114.104C628.208 114.14 628.228 114.173 628.252 114.209C628.26 114.221 628.283 114.257 628.291 114.27C628.315 114.306 628.34 114.344 628.364 114.38C628.372 114.393 628.388 114.419 628.397 114.432C628.425 114.475 628.459 114.527 628.487 114.57C628.495 114.583 628.495 114.582 628.503 114.595C628.54 114.652 628.572 114.703 628.611 114.76C628.619 114.773 628.619 114.775 628.627 114.787C628.655 114.83 628.689 114.882 628.717 114.926C628.725 114.938 628.738 114.958 628.746 114.97C628.77 115.006 628.799 115.051 628.822 115.089C628.83 115.101 628.851 115.133 628.859 115.146C628.877 115.175 628.908 115.221 628.927 115.25C628.943 115.276 628.951 115.287 628.967 115.313C628.991 115.349 629.012 115.382 629.036 115.418C629.044 115.431 629.065 115.462 629.073 115.473C629.101 115.517 629.124 115.553 629.151 115.598C629.159 115.61 629.168 115.624 629.177 115.637C629.251 115.752 629.318 115.856 629.393 115.971L629.405 115.991C629.433 116.035 629.468 116.091 629.496 116.134C629.504 116.147 629.518 116.165 629.526 116.179C629.552 116.222 629.574 116.255 629.602 116.298C629.618 116.323 629.618 116.321 629.634 116.347C629.662 116.39 629.683 116.424 629.711 116.467C629.719 116.48 629.733 116.5 629.739 116.512C629.768 116.556 629.793 116.596 629.821 116.639C629.829 116.652 629.838 116.665 629.847 116.677C629.878 116.728 629.906 116.772 629.938 116.823C629.946 116.835 629.943 116.83 629.951 116.842C629.989 116.901 630.024 116.954 630.06 117.013L630.064 117.017C630.1 117.074 630.128 117.12 630.165 117.177C630.173 117.189 630.18 117.2 630.188 117.212C630.214 117.255 630.241 117.296 630.269 117.34C630.277 117.352 630.292 117.379 630.301 117.391C630.329 117.435 630.346 117.46 630.373 117.504C630.388 117.529 630.391 117.532 630.408 117.558C630.43 117.594 630.458 117.638 630.481 117.674C630.489 117.686 630.503 117.71 630.511 117.723C630.539 117.766 630.573 117.819 630.6 117.862C630.608 117.875 630.605 117.871 630.614 117.884C630.687 118 630.756 118.109 630.83 118.223L630.838 118.238C630.87 118.289 630.903 118.34 630.934 118.39C630.941 118.402 630.944 118.406 630.953 118.419C630.981 118.463 631.014 118.516 631.042 118.56C631.05 118.572 631.052 118.578 631.06 118.59C631.089 118.633 631.121 118.684 631.148 118.727C631.156 118.739 631.159 118.747 631.167 118.758C631.196 118.802 631.232 118.861 631.259 118.903L631.272 118.926C631.382 119.099 631.483 119.259 631.593 119.432L631.608 119.458C631.635 119.5 631.671 119.558 631.698 119.6C631.706 119.613 631.709 119.616 631.715 119.63C631.744 119.672 631.778 119.728 631.805 119.77C631.812 119.782 631.814 119.785 631.822 119.799C631.85 119.841 631.885 119.897 631.911 119.94C631.919 119.951 631.921 119.956 631.929 119.968C631.965 120.025 631.991 120.068 632.027 120.126L632.032 120.133C632.141 120.307 632.241 120.467 632.35 120.641C632.358 120.654 632.36 120.66 632.368 120.671C632.395 120.715 632.429 120.769 632.455 120.812L632.473 120.84C632.501 120.884 632.534 120.937 632.561 120.981C632.568 120.993 632.572 120.999 632.58 121.012C632.608 121.055 632.643 121.114 632.67 121.157L632.683 121.177C632.791 121.351 632.894 121.517 633 121.69L633.005 121.7C633.042 121.757 633.067 121.798 633.103 121.856C633.111 121.869 633.111 121.868 633.118 121.881C633.146 121.924 633.181 121.983 633.208 122.025C633.215 122.038 633.216 122.04 633.224 122.051C633.251 122.095 633.289 122.157 633.316 122.201C633.324 122.213 633.319 122.206 633.327 122.219C633.469 122.45 633.605 122.672 633.748 122.902C633.756 122.915 633.748 122.904 633.756 122.915C633.792 122.974 633.815 123.013 633.851 123.07L633.866 123.093C633.892 123.137 633.929 123.199 633.956 123.243C633.964 123.255 633.96 123.248 633.968 123.262C634.004 123.319 634.031 123.364 634.066 123.421L634.073 123.432C634.177 123.605 634.281 123.773 634.387 123.946L634.394 123.957C634.429 124.016 634.454 124.056 634.489 124.113C634.497 124.126 634.495 124.123 634.503 124.137C634.534 124.188 634.564 124.236 634.594 124.286L634.605 124.305C634.641 124.362 634.666 124.404 634.701 124.463L634.709 124.475C634.849 124.707 634.983 124.929 635.123 125.16C635.131 125.173 635.125 125.163 635.132 125.176C635.167 125.233 635.191 125.273 635.226 125.33L635.238 125.35C635.268 125.4 635.299 125.449 635.329 125.5C635.337 125.514 635.334 125.51 635.342 125.521C635.377 125.578 635.405 125.628 635.44 125.686L635.442 125.688C635.546 125.861 635.648 126.032 635.754 126.206L635.76 126.217C635.795 126.275 635.819 126.315 635.854 126.372C635.86 126.386 635.86 126.384 635.869 126.398C635.894 126.44 635.929 126.498 635.954 126.542C635.962 126.554 635.963 126.556 635.971 126.57C635.997 126.612 636.036 126.675 636.061 126.719L636.072 126.737C636.21 126.969 636.342 127.19 636.481 127.422C636.487 127.434 636.481 127.423 636.489 127.435C636.524 127.492 636.546 127.532 636.581 127.591L636.593 127.611C636.623 127.662 636.653 127.711 636.683 127.762C636.69 127.775 636.687 127.769 636.694 127.782C636.832 128.014 636.964 128.237 637.101 128.469L637.105 128.476C637.14 128.533 637.166 128.578 637.2 128.637C637.207 128.649 637.204 128.642 637.211 128.655C637.242 128.706 637.273 128.759 637.303 128.81L637.311 128.825C637.346 128.883 637.375 128.933 637.408 128.99L637.411 128.993C637.547 129.225 637.681 129.453 637.817 129.685C637.824 129.697 637.817 129.684 637.824 129.697C637.854 129.747 637.885 129.8 637.915 129.851L637.928 129.875C637.954 129.918 637.991 129.982 638.016 130.025C638.024 130.038 638.02 130.032 638.027 130.043C638.196 130.334 638.358 130.611 638.527 130.901C638.534 130.913 638.53 130.905 638.536 130.917C638.571 130.975 638.592 131.014 638.627 131.071L638.636 131.089C638.805 131.38 638.966 131.657 639.134 131.947C639.14 131.959 639.135 131.949 639.141 131.962C639.175 132.019 639.197 132.059 639.231 132.118L639.243 132.137C639.277 132.194 639.3 132.237 639.334 132.296C639.342 132.308 639.333 132.292 639.339 132.305C639.507 132.595 639.669 132.877 639.835 133.168C639.841 133.181 639.833 133.167 639.841 133.179C639.875 133.237 639.9 133.281 639.934 133.34L639.94 133.353C639.974 133.41 640 133.457 640.033 133.516L640.038 133.524C640.171 133.757 640.3 133.984 640.432 134.216L640.437 134.224C640.469 134.281 640.497 134.329 640.531 134.388L640.536 134.399C640.569 134.457 640.593 134.5 640.626 134.559C640.633 134.571 640.628 134.562 640.636 134.573C640.8 134.864 640.959 135.145 641.122 135.436L641.128 135.444C641.159 135.502 641.186 135.548 641.218 135.606L641.226 135.62C641.26 135.678 641.286 135.725 641.318 135.784L641.322 135.79C641.452 136.022 641.581 136.252 641.712 136.485L641.714 136.488C641.747 136.547 641.775 136.598 641.808 136.655L641.813 136.664C642.008 137.014 642.198 137.358 642.393 137.706L642.394 137.709C642.427 137.768 642.457 137.823 642.489 137.881L642.49 137.884C642.651 138.175 642.812 138.463 642.972 138.754L642.973 138.757C643.005 138.816 643.033 138.866 643.065 138.925L643.071 138.936C643.104 138.994 643.129 139.041 643.161 139.1C643.167 139.112 643.159 139.096 643.166 139.108C643.326 139.4 643.483 139.686 643.642 139.977L643.644 139.98C643.834 140.329 644.022 140.676 644.211 141.025L644.214 141.03C644.246 141.088 644.275 141.138 644.305 141.197L644.31 141.207C644.342 141.264 644.37 141.317 644.403 141.376V141.378C644.435 141.434 644.463 141.487 644.493 141.546V200.042C618.157 144.179 580.428 99.442 535.735 79.126C527.223 75.2569 519.388 73.5436 512.104 73.5436C483.794 73.5436 463.811 99.4398 444.842 125.333C425.871 151.227 407.914 177.122 383.643 177.122C378.015 177.122 372.045 175.729 365.648 172.62C353.504 166.722 341.301 163.93 329.639 163.93C275.349 163.93 232.855 224.441 263.387 313.568C265.015 318.319 266.434 323.011 267.651 327.624V412.981C264.739 416.417 261.719 419.929 259.204 423.137C254.515 429.118 254.497 435.679 255.139 439.746H252.124C252.067 438.332 252.178 436.515 252.603 434.201C252.607 434.184 252.61 434.168 252.612 434.152C252.612 434.15 252.612 434.15 252.612 434.149C252.616 434.135 252.619 434.119 252.622 434.104C252.622 434.101 252.622 434.1 252.623 434.097C252.626 434.082 252.628 434.067 252.631 434.051C252.631 434.05 252.633 434.048 252.633 434.048C252.636 434.031 252.64 434.013 252.642 433.996C253.891 427.407 256.694 421.029 256.692 414.152C256.69 412.543 256.537 410.909 256.173 409.239C254.278 400.516 239.559 378.67 239.184 376.756C239.179 376.719 239.176 376.699 239.176 376.699C239.175 376.66 239.171 376.641 239.164 376.641C238.894 376.641 234.743 402.853 242.312 413.347C250.085 424.122 251.02 427.86 250.674 433.525C250.534 435.829 250.52 437.951 250.612 439.746H249.544C249.692 438.322 249.793 436.629 249.749 434.813C249.725 433.841 249.661 432.834 249.539 431.814C248.786 425.512 242.203 421.966 236.051 415.31C236.048 415.308 236.046 415.304 236.043 415.301C236.041 415.299 236.041 415.299 236.041 415.299C234.796 413.938 233.897 410.304 233.385 406.298C232.645 400.506 232.715 393.937 233.716 392.337C233.708 392.346 233.701 392.354 233.695 392.363C233.696 392.362 233.696 392.36 233.697 392.358C233.836 392.183 233.912 392.092 233.912 392.092C233.836 392.157 233.766 392.246 233.697 392.358C232.183 394.271 223.192 406.058 224.727 414.889C226.403 424.525 244.119 430.786 245.759 435.442C246.307 437 246.657 438.475 246.879 439.746H239.109L241.254 453.245C190.289 456.123 158.258 460.288 158.258 464.921C158.258 468.949 182.49 472.625 222.331 475.408C213.938 480.184 205.382 482.71 197.393 482.71C193.488 482.71 189.718 482.106 186.172 480.865C177.603 477.865 168.994 476.274 160.953 476.274C139.347 476.274 121.853 487.77 120.38 514.317V514.313ZM233.913 392.088C233.913 392.088 233.838 392.178 233.717 392.333L233.913 392.088ZM257.503 437.886C257.823 436.83 258.327 435.917 258.993 435.086C258.505 436.034 258.01 436.964 257.503 437.886Z" fill="#F8F9FE"/>
<path d="M614.345 273.492C625.53 273.492 626.149 256.66 614.978 256.118C614.673 256.102 614.367 256.095 614.057 256.095C612.063 256.095 610.144 256.411 608.342 256.99C606.847 247.879 598.94 240.927 589.407 240.927C579.663 240.927 571.622 248.189 570.384 257.595C568.072 256.487 565.484 255.866 562.748 255.866C561.22 255.866 559.737 256.059 558.324 256.423C548.544 258.942 550.598 273.492 560.695 273.492H614.345H614.345Z" fill="#C4C4C4"/>
<path opacity="0.3" d="M646.297 459.225C609.814 453.35 518.526 449.186 411.671 449.186C272.71 449.186 160.061 456.229 160.061 464.917C160.061 473.603 272.71 480.646 411.671 480.646C518.527 480.646 609.815 476.482 646.297 470.607V459.225Z" fill="#091B44" fill-opacity="0.2"/>
<path d="M558.432 239.477H278.27C272.406 239.477 267.654 244.229 267.654 250.093V443.036C267.654 448.898 272.406 453.651 278.27 453.651H558.432C564.294 453.651 569.046 448.898 569.046 443.036V250.093C569.046 244.229 564.294 239.477 558.432 239.477Z" fill="#091B44"/>
<path d="M290.934 437.817V255.31C290.934 254.218 291.819 253.334 292.91 253.334H526.828C527.921 253.334 528.807 254.218 528.807 255.31V437.817C528.807 438.908 527.922 439.793 526.828 439.793H292.91C291.819 439.793 290.934 438.908 290.934 437.817Z" fill="#FBFDFF"/>
<path d="M527.03 253.334H292.709C291.73 253.334 290.934 254.13 290.934 255.108V260.187H518.806C519.785 260.187 520.582 260.983 520.582 261.962V439.793H527.03C528.009 439.793 528.806 438.996 528.806 438.017V255.108C528.806 254.13 528.008 253.334 527.03 253.334Z" fill="#2271B7"/>
<path d="M558.425 346.563C558.425 341.207 554.082 336.863 548.725 336.863C543.368 336.863 539.025 341.207 539.025 346.563C539.025 351.92 543.368 356.263 548.725 356.263C554.082 356.263 558.425 351.92 558.425 346.563Z" fill="#FEFEFE"/>
<path d="M292.712 439.79L418.78 439.793C411.723 444.954 406.215 449.59 398.407 453.653H277.191C271.924 453.653 267.654 449.381 267.654 444.114V249.007C267.654 243.75 271.924 239.478 277.191 239.478H481.269C482.945 244.011 484.431 248.631 485.722 253.331H292.712C291.725 253.331 290.931 254.126 290.931 255.113V438.017C290.931 438.996 291.724 439.791 292.712 439.791V439.79Z" fill="#2271B7"/>
<path d="M339.531 199.858H341.806V88.8623H339.531V199.858Z" fill="#106CB3"/>
<path d="M502.635 225.353H504.91V88.8623H502.635V225.353Z" fill="#106CB3"/>
<path d="M504.692 214.193L335.535 194.449C328.306 193.605 321.762 198.781 320.918 206.01L308.293 314.177C307.448 321.407 312.624 327.952 319.854 328.795L489.011 348.54C496.24 349.383 502.784 344.207 503.628 336.977L516.254 228.81C517.098 221.581 511.922 215.037 504.692 214.193Z" fill="#F8F9FE"/>
<path d="M515.005 239.517L516.254 228.81C517.098 221.581 511.922 215.037 504.692 214.193L335.535 194.449C328.306 193.605 321.762 198.781 320.918 206.01L319.667 216.717L515.004 239.517H515.005Z" fill="#091B44"/>
<path d="M339.609 209.397C339.383 211.34 337.624 212.731 335.681 212.504C333.738 212.277 332.347 210.518 332.574 208.576C332.801 206.633 334.56 205.241 336.502 205.468C338.445 205.696 339.835 207.455 339.608 209.397H339.609Z" fill="#FEFEFE"/>
<path d="M356.577 211.377C356.351 213.32 354.592 214.71 352.65 214.485C350.707 214.257 349.317 212.498 349.543 210.556C349.769 208.613 351.528 207.222 353.47 207.449C355.413 207.676 356.804 209.435 356.577 211.377Z" fill="#FEFEFE"/>
<path d="M374.165 213.43C373.94 215.373 372.18 216.763 370.237 216.536C368.295 216.31 366.904 214.551 367.131 212.609C367.357 210.666 369.116 209.274 371.058 209.502C373.001 209.728 374.392 211.487 374.165 213.429V213.43Z" fill="#FEFEFE"/>
<path d="M363.041 286.562L366.076 261.613L352.512 285.28L363.042 286.562H363.041ZM342.931 284.115L367.363 241.553L378.744 242.938L373.286 287.807L378.22 288.407L377.066 297.894L372.132 297.292L370.667 309.34L360.423 308.094L361.888 296.047L341.776 293.6L342.931 284.114V284.115Z" fill="#E7563F"/>
<path d="M400.889 297.517C400.312 302.261 402.181 304.317 405.499 304.721C408.82 305.124 411.126 303.576 411.703 298.833L416.065 262.976C416.642 258.234 414.775 256.178 411.454 255.772C408.136 255.369 405.829 256.918 405.252 261.66L400.889 297.517L400.889 297.517ZM394.735 261.055C396.028 250.431 402.363 245.041 412.608 246.287C422.854 247.532 427.712 254.286 426.419 264.908L422.219 299.438C420.927 310.062 414.593 315.453 404.346 314.206C394.102 312.959 389.243 306.207 390.536 295.583L394.735 261.054V261.055Z" fill="#E7563F"/>
<path d="M456.387 297.916L459.422 272.968L445.857 296.635L456.387 297.917V297.916ZM436.276 295.469L460.708 252.907L472.09 254.293L466.631 299.161L471.565 299.763L470.412 309.248L465.478 308.648L464.013 320.695L453.769 319.449L455.232 307.402L435.122 304.955L436.275 295.469H436.276Z" fill="#E7563F"/>
<path d="M306.117 371.615C306.117 371.615 303.832 381.744 304.213 392.103C304.554 401.375 303.45 462.33 303.45 462.33H310.895C310.895 462.33 321.495 414.59 321.89 410.82C322.287 407.051 327.618 369.348 327.618 369.348L306.117 371.614V371.615Z" fill="#394D8E"/>
<path d="M311.068 368.834C311.068 368.834 312.781 381.859 315.696 391.112C318.609 400.367 332.928 462.33 332.928 462.33H340.373C340.373 462.33 339.001 414.59 338.488 410.82C337.973 407.051 334.204 369.348 334.204 369.348L311.068 368.834Z" fill="#2C5BA7"/>
<path d="M333.536 462.318V467.514H347.709C348.513 467.514 348.829 466.472 348.159 466.025C346.085 464.645 342.765 462.742 339.678 462.318H333.536Z" fill="#394D8E"/>
<path d="M303.832 462.318V467.514H318.003C318.809 467.514 319.124 466.472 318.453 466.025C316.381 464.645 313.059 462.742 309.974 462.318H303.832Z" fill="#394D8E"/>
<path d="M330.897 301.264L330.91 301.267L330.874 301.227L330.686 301.016L330.428 300.783L330.191 300.62C330.067 300.544 329.927 300.48 329.779 300.419L329.531 300.318C329.276 300.235 328.999 300.167 328.678 300.126C324.382 299.571 322.613 300.851 322.613 300.851C322.613 300.851 317.666 300.305 314.958 302.652C313.103 304.261 306.292 316.734 317.305 321.248C317.64 321.385 317.961 321.506 318.273 321.614L318.564 321.708C318.769 321.774 318.971 321.842 319.165 321.897L319.5 321.981C319.665 322.023 319.833 322.067 319.992 322.098L320.323 322.158C320.468 322.184 320.614 322.209 320.752 322.228L321.066 322.258C321.196 322.269 321.327 322.281 321.45 322.285L321.743 322.286L322.084 322.277L322.358 322.251L322.662 322.208L322.914 322.155L323.185 322.083L323.414 322.007L323.655 321.907L323.864 321.807L324.073 321.684L324.262 321.563L324.445 321.42L324.614 321.278L324.771 321.119L324.922 320.957L325.054 320.785L325.189 320.606L325.297 320.43L325.418 320.228L325.496 320.067C326.67 317.672 325.971 314.207 325.971 314.207L329.401 308.248C329.401 308.248 332.497 303.532 330.895 301.263L330.897 301.264Z" fill="#394D8E"/>
<path d="M322.542 311.86C322.542 311.86 321.098 310.416 320.014 311.86C318.932 313.304 319.655 316.555 321.459 316.735C321.459 316.735 320.918 321.43 317.307 321.248V325.04H325.792V322.151C325.792 322.151 331.028 319.985 330.847 315.652C330.667 311.319 329.402 308.25 329.402 308.25C329.402 308.25 326.514 311.499 322.542 311.86Z" fill="#F9B397"/>
<path d="M323.839 323.365C324.681 323.714 324.533 324.244 324.571 325.04H325.792V322.151C325.792 322.151 323.736 322.804 320.724 321.09C320.724 321.09 322.477 322.797 323.84 323.366L323.839 323.365Z" fill="#E9987F"/>
<path d="M325.577 304.951C325.577 304.951 321.179 303.199 320.665 304.513C320.329 305.372 321.184 306.113 322.358 306.862L321.324 307.033C321.092 307.07 321.009 307.365 321.191 307.51C321.479 307.744 322.275 307.901 323.941 307.958L325.576 304.95L325.577 304.951Z" fill="#F9B397"/>
<path d="M305.658 366.293L304.165 363.033L299.413 352.647L307.3 343.812L305.882 363.197L305.658 366.293ZM356.985 315.966C348.598 309.752 325.691 304.782 325.691 304.782L323.803 308.221C323.803 308.221 344.598 316.28 343.225 317.481C342.419 318.19 332.256 322.847 328.818 324.413C328.078 324.748 327.273 324.913 326.451 324.899L315.925 324.838C315.925 324.838 308.329 323.934 302.352 330.8C297.01 336.948 287.931 351.184 287.931 351.184L303.225 373.679L304.92 376.164L304.935 376.135L304.92 376.344C304.92 376.344 305.464 376.402 306.427 376.492C311.343 376.948 327.103 378.193 335.442 376.425L335.675 376.373L335.278 339.469C348.598 328.926 354.954 320.786 357.23 318.228C357.827 317.547 357.716 316.511 356.985 315.966V315.966Z" fill="#091B44"/>
<path d="M304.165 363.033L305.658 366.293L304.935 376.135L304.92 376.164L303.225 373.68L304.165 363.033Z" fill="#2C5BA7"/>
<path d="M331.721 338.144C330.305 339.172 330.664 348.298 330.313 354.005C329.727 363.561 329.157 371.829 329.577 377.161C331.736 377.018 333.745 376.785 335.442 376.425L335.675 376.372L335.278 339.469C348.599 328.926 354.954 320.786 357.23 318.228C357.827 317.547 357.716 316.511 356.985 315.966C356.985 315.966 346.456 327.443 331.721 338.143V338.144Z" fill="#2C5BA7"/>
<path d="M338.488 410.82C338.116 408.1 336.052 387.714 334.93 376.572L329.577 377.161C329.577 377.161 337.384 441.332 337.896 462.33H340.373C340.373 462.33 339.001 414.59 338.488 410.82Z" fill="#394D8E"/>
<path d="M253.398 444.265C253.398 444.265 251.104 442.124 252.644 433.992C254.184 425.862 258.092 418.055 256.174 409.235C254.259 400.415 239.227 378.174 239.177 376.695C239.127 375.216 234.541 402.568 242.313 413.343C250.085 424.118 251.021 427.856 250.674 433.521C250.33 439.188 250.755 443.751 251.609 445.068L253.398 444.265Z" fill="#3C85C0"/>
<path d="M251.976 427.915C251.072 431.541 250.527 440.636 251.971 442.812C252.107 443.015 252.301 442.899 252.541 442.524C252.102 441.02 251.812 438.385 252.644 433.992C254.184 425.862 258.092 418.055 256.174 409.235C254.259 400.415 239.227 378.174 239.177 376.695C239.177 376.695 241.441 395.224 249.069 407.979C254.53 417.109 252.88 424.286 251.975 427.915H251.976Z" fill="#106CB3"/>
<path d="M256.139 443.702C256.139 443.702 251.723 432.677 259.207 423.133C266.69 413.587 278.659 401.332 278.896 396.477C278.896 396.477 281.972 419.529 272.231 426.053C262.492 432.58 255.662 433.62 257.35 443.66L256.139 443.703L256.139 443.702Z" fill="#3C85C0"/>
<path d="M266.652 421.419C255.79 429.323 254.902 438.431 256.589 442.653C256.719 442.984 256.968 443.183 257.295 443.29C255.839 433.598 262.614 432.497 272.231 426.052C281.972 419.529 278.897 396.477 278.897 396.477C278.897 396.477 277.512 413.514 266.653 421.419L266.652 421.419Z" fill="#106CB3"/>
<path d="M248.877 443.949C248.877 443.949 250.293 438.112 249.54 431.81C248.787 425.508 242.204 421.962 236.052 415.307C232.886 411.881 231.95 393.77 233.913 392.088C233.913 392.088 223.053 405.249 224.728 414.885C226.404 424.521 244.12 430.782 245.76 435.438C247.398 440.095 247.264 444.003 247.264 444.003L248.877 443.948V443.949Z" fill="#3C85C0"/>
<path d="M230.242 397.267C226.654 406.987 230.333 418.759 242.257 426.072C251.034 431.454 248.239 442.648 248.239 442.648L249.672 438.232C249.8 436.322 249.814 434.098 249.54 431.81C248.787 425.508 242.204 421.962 236.052 415.306C232.998 412.003 232.021 395.042 233.717 392.333C233.218 392.96 231.813 394.781 230.242 397.267H230.242Z" fill="#106CB3"/>
<path d="M233.718 392.333C233.839 392.179 233.913 392.088 233.913 392.088L233.718 392.333Z" fill="#67A8D5"/>
<path d="M258.412 443.22C258.412 443.22 260.955 433.776 267.252 432.504C273.548 431.233 280.775 421.931 281.166 420.106C281.166 420.106 280.105 437.649 258.412 443.22Z" fill="#3C85C0"/>
<path d="M266.892 435.626C263.035 437.556 261.432 440.149 260.861 442.504C280.176 436.293 281.166 420.107 281.166 420.107C281.089 420.468 280.737 421.128 280.185 421.952C278.29 425.271 273.706 432.22 266.891 435.627L266.892 435.626Z" fill="#106CB3"/>
<path d="M272.035 439.742H239.109L243.019 464.334C243.316 466.199 244.924 467.572 246.814 467.572H264.33C266.221 467.572 267.828 466.2 268.124 464.334L272.035 439.742H272.035Z" fill="#2271B7"/>
<path d="M264.329 467.572H256.353C258.243 467.572 259.85 466.2 260.148 464.333L263.411 443.812H239.756L239.109 439.743H272.035L268.124 464.334C267.849 466.062 266.451 467.366 264.745 467.55C264.609 467.564 264.471 467.572 264.329 467.572V467.572Z" fill="#2C5BA7"/>
<path d="M359.221 426.144H508.027V395.886H359.221V426.144Z" fill="#2271B7"/>
<path d="M508.027 403.23H382.102L385.741 395.886H372.16L368.512 403.23H359.221V395.886H508.027V403.23Z" fill="#091B44"/>
<path d="M372.16 395.886H385.741L382.101 403.233H368.51L372.16 395.886Z" fill="#E7563F"/>
<path d="M402.759 395.886H416.34L412.7 403.233H399.117L402.759 395.886Z" fill="#E7563F"/>
<path d="M433.357 395.886H446.94L443.298 403.233H429.717L433.357 395.886Z" fill="#E7563F"/>
<path d="M463.955 395.886H477.532L473.89 403.233H460.317L463.955 395.886Z" fill="#E7563F"/>
<path d="M508.027 395.886V396.092L504.482 403.233H490.916L494.555 395.886H508.027Z" fill="#EEF2F6"/>
<path d="M377.743 467.514H388.233V426.145H377.743V467.514Z" fill="#2271B7"/>
<path d="M479.83 467.514H490.319V426.145H479.83V467.514Z" fill="#2271B7"/>
<path d="M377.743 395.857H388.233V391.16H377.743V395.857Z" fill="#2271B7"/>
<path d="M479.83 395.857H490.319V391.16H479.83V395.857Z" fill="#2271B7"/>
<path d="M388.233 439.792V426.145H377.743V426.144H388.233V439.792Z" fill="#70AAD4"/>
<path d="M377.743 426.144H388.233V426.113H377.743V426.144Z" fill="#927099"/>
<path d="M388.233 467.514H385.85V431.323H377.743V426.145H388.233V467.514Z" fill="#2C5BA7"/>
<path d="M490.32 439.793V426.145H479.83V426.144H490.32V439.793Z" fill="#70AAD4"/>
<path d="M479.83 426.144H490.319V426.113H479.83V426.144Z" fill="#927099"/>
<path d="M490.32 467.514H487.218V431.323H479.83V426.145H490.32V467.514Z" fill="#2C5BA7"/>
<path d="M388.233 395.861H377.743V395.857H388.233V391.16V395.861Z" fill="#70AAD4"/>
<path d="M388.233 395.857H377.743V395.269H385.85V391.16H388.233V395.857Z" fill="#2271B7"/>
<path d="M490.32 395.861H479.83V395.857H490.32V391.16V395.861Z" fill="#70AAD4"/>
<path d="M490.32 395.857H479.83V395.269H487.218V391.16H490.32V395.857Z" fill="#2271B7"/>
<path d="M385.741 395.886L370.733 426.144H359.221V421.969L372.16 395.886H385.741Z" fill="#FEFEFE"/>
<path d="M402.758 395.886L387.75 426.144H401.331L416.339 395.886H402.758Z" fill="#FEFEFE"/>
<path d="M446.94 395.886L431.932 426.144H418.349L433.357 395.886H446.94Z" fill="#FEFEFE"/>
<path d="M477.532 395.886L462.532 426.144H448.949L463.956 395.886H477.532Z" fill="#FEFEFE"/>
<path d="M494.555 395.886L479.549 426.144H493.122L508.027 396.092L494.555 395.886Z" fill="#FEFEFE"/>
<path d="M385.741 395.886L382.101 403.233H368.51L372.16 395.886H385.741Z" fill="#EEF2F6"/>
<path d="M416.34 395.886L412.7 403.233H399.117L402.759 395.886H416.34Z" fill="#EEF2F6"/>
<path d="M446.94 395.886L443.298 403.233H429.717L433.357 395.886H446.94Z" fill="#EEF2F6"/>
<path d="M477.532 395.886L473.89 403.233H460.317L463.955 395.886H477.532Z" fill="#EEF2F6"/>
<path d="M508.027 396.092L504.482 403.233H490.916L494.555 395.886L508.027 396.092Z" fill="#EEF2F6"/>
<path d="M392.068 384.594C392.068 379.429 387.881 375.241 382.716 375.241C377.551 375.241 373.362 379.429 373.362 384.594C373.362 389.76 377.551 393.946 382.716 393.946C387.881 393.946 392.068 389.759 392.068 384.594Z" fill="#2271B7"/>
<path d="M386.953 384.594C386.953 382.253 385.056 380.355 382.716 380.355C380.374 380.355 378.477 382.253 378.477 384.594C378.477 386.934 380.374 388.833 382.716 388.833C385.055 388.833 386.953 386.935 386.953 384.594Z" fill="#FEFEFE"/>
<path d="M494.367 384.594C494.367 379.429 490.178 375.241 485.012 375.241C479.847 375.241 475.66 379.429 475.66 384.594C475.66 389.76 479.847 393.946 485.012 393.946C490.178 393.946 494.367 389.759 494.367 384.594Z" fill="#2271B7"/>
<path d="M489.251 384.594C489.251 382.253 487.353 380.355 485.011 380.355C482.671 380.355 480.773 382.253 480.773 384.594C480.773 386.934 482.671 388.833 485.011 388.833C487.352 388.833 489.251 386.935 489.251 384.594Z" fill="#FEFEFE"/>
<path d="M564.405 464.308H517.011L524.261 446.735V446.725L527.175 439.634L527.979 437.691L529.288 434.528L529.555 433.883L532.471 426.792L533.007 425.503L538.173 412.959C539.105 410.698 542.309 410.698 543.241 412.959L548.408 425.503L548.943 426.792L551.858 433.883L552.126 434.528L553.434 437.691L554.238 439.634L557.154 446.725V446.735L564.403 464.308H564.405Z" fill="#2271B7"/>
<path d="M562.553 459.804H562.546L561.297 456.773H561.303L562.553 459.804ZM518.87 459.804H518.869L520.118 456.773H520.12L518.871 459.804H518.87Z" fill="#C7B9C1"/>
<path d="M562.546 459.804H518.87L520.119 456.773H554.589L555.835 459.8H562.54L561.293 456.773H561.297L562.546 459.804Z" fill="#091B44"/>
<path d="M513.225 467.477H567.505V459.804H513.225V467.477Z" fill="#2271B7"/>
<path d="M555.777 467.477H567.505V459.804H555.777V467.477Z" fill="#2C5BA7"/>
<path d="M561.292 456.773H554.589L550.451 446.74V446.729L547.535 439.64L546.731 437.696L545.423 434.532L545.157 433.887L542.239 426.797L541.705 425.508L537.36 414.946L538.174 412.962C538.641 411.831 539.674 411.268 540.709 411.268C541.742 411.268 542.775 411.831 543.242 412.962L548.408 425.508L548.943 426.797L551.859 433.887L552.127 434.532L553.435 437.696L554.238 439.64L557.155 446.729V446.74L561.292 456.773H561.292Z" fill="#091B44"/>
<path d="M562.54 459.8H555.835L554.589 456.773H561.293L562.54 459.8Z" fill="#091B44"/>
<path d="M551.859 433.883H529.555L532.471 426.792H548.943L551.859 433.883Z" fill="#FEFEFE"/>
<path d="M557.155 446.725V446.736H524.261V446.725L527.175 439.634H554.239L557.155 446.725Z" fill="#FEFEFE"/>
<path d="M551.859 433.883H545.156L542.239 426.792H548.943L551.859 433.883Z" fill="#EEF2F6"/>
<path d="M557.155 446.725V446.736H550.452V446.725L547.536 439.634H554.239L557.155 446.725Z" fill="#EEF2F6"/>
<path d="M465.542 171.505C476.721 171.505 477.342 154.678 466.174 154.136C465.87 154.121 465.562 154.113 465.254 154.113C463.26 154.113 461.341 154.429 459.54 155.008C458.046 145.9 450.141 138.95 440.61 138.95C430.87 138.95 422.831 146.209 421.594 155.613C419.282 154.505 416.693 153.884 413.959 153.884C412.432 153.884 410.95 154.077 409.536 154.441C399.761 156.96 401.813 171.505 411.907 171.505H465.541H465.542Z" fill="#C4C4C4"/>
<path d="M278.088 225.357C281.629 225.357 284.708 222.786 285.185 219.278C285.272 218.648 285.315 218.006 285.315 217.352C285.315 209.542 278.984 203.21 271.171 203.21C270.851 203.21 270.534 203.224 270.219 203.244C269.573 195.542 263.121 189.491 255.251 189.491C246.952 189.491 240.225 196.218 240.225 204.517C240.225 204.885 240.245 205.249 240.271 205.61C237.915 204.294 235.171 203.591 232.252 203.725C224.705 204.07 218.503 210.108 217.97 217.644L217.958 217.822C217.716 221.92 221.029 225.357 225.134 225.357H278.087H278.088Z" fill="#C4C4C4"/>
</svg>
