<svg width="30" height="30" viewBox="0 0 30 30" fill="none" xmlns="http://www.w3.org/2000/svg">
<path d="M16.875 23.4375H3.75005V25.3125H16.875V23.4375ZM23.2782 24.375L25.6969 26.7938L24.375 28.125L20.625 24.375L24.375 20.625L25.7063 21.9469L23.2782 24.375ZM16.875 14.0625H3.75005V15.9375H16.875V14.0625ZM23.2782 15L25.6969 17.4187L24.375 18.75L20.625 15L24.375 11.25L25.7063 12.5719L23.2782 15ZM16.875 4.6875H3.75005V6.5625H16.875V4.6875ZM23.2782 5.625L25.6969 8.04375L24.375 9.375L20.625 5.625L24.375 1.875L25.7063 3.19688L23.2782 5.625Z" fill="#325ECD"/>
</svg>
