<svg width="30" height="30" viewBox="0 0 30 30" fill="none" xmlns="http://www.w3.org/2000/svg">
<path d="M21 3C21.7956 3 22.5587 3.31607 23.1213 3.87868C23.6839 4.44129 24 5.20435 24 6V13.8105C23.5097 13.6717 23.0075 13.5788 22.5 13.533V6C22.5 5.60218 22.342 5.22064 22.0607 4.93934C21.7794 4.65804 21.3978 4.5 21 4.5H15V9.75C15 10.3467 14.7629 10.919 14.341 11.341C13.919 11.7629 13.3467 12 12.75 12H7.5V24C7.5 24.3978 7.65804 24.7794 7.93934 25.0607C8.22064 25.342 8.60217 25.5 9 25.5H14.4C14.673 26.0343 15.0035 26.5373 15.3855 27H9C8.20435 27 7.44129 26.6839 6.87868 26.1213C6.31607 25.5587 6 24.7957 6 24V11.121C6.00052 10.5245 6.23792 9.95255 6.66 9.531L12.531 3.6585C12.9528 3.23697 13.5247 3.00013 14.121 3H21ZM7.8105 10.5H12.75C12.9489 10.5 13.1397 10.421 13.2803 10.2803C13.421 10.1397 13.5 9.94891 13.5 9.75V4.8105L7.8105 10.5ZM21.75 28.5C19.9598 28.5 18.2429 27.7888 16.977 26.523C15.7112 25.2571 15 23.5402 15 21.75C15 19.9598 15.7112 18.2429 16.977 16.977C18.2429 15.7112 19.9598 15 21.75 15C23.5402 15 25.2571 15.7112 26.523 16.977C27.7888 18.2429 28.5 19.9598 28.5 21.75C28.5 23.5402 27.7888 25.2571 26.523 26.523C25.2571 27.7888 23.5402 28.5 21.75 28.5ZM25.281 22.281C25.4218 22.1402 25.5009 21.9492 25.5009 21.75C25.5009 21.5508 25.4218 21.3598 25.281 21.219C25.1402 21.0782 24.9492 20.9991 24.75 20.9991C24.5508 20.9991 24.3598 21.0782 24.219 21.219L22.5 22.9395V18.75C22.5 18.5511 22.421 18.3603 22.2803 18.2197C22.1397 18.079 21.9489 18 21.75 18C21.5511 18 21.3603 18.079 21.2197 18.2197C21.079 18.3603 21 18.5511 21 18.75V22.9395L19.281 21.219C19.1402 21.0782 18.9492 20.9991 18.75 20.9991C18.5508 20.9991 18.3598 21.0782 18.219 21.219C18.0782 21.3598 17.9991 21.5508 17.9991 21.75C17.9991 21.9492 18.0782 22.1402 18.219 22.281L21.219 25.281C21.3588 25.4205 21.548 25.4992 21.7455 25.5H21.7545C21.95 25.4988 22.1373 25.4213 22.2765 25.284L22.281 25.2795L25.281 22.2795V22.281Z" fill="#717C8C"/>
</svg>
