<svg width="109" height="109" viewBox="0 0 109 109" fill="none" xmlns="http://www.w3.org/2000/svg">
<g style="mix-blend-mode:color-burn" opacity="0.5">
<path opacity="0.3" d="M108.426 54.4217C108.426 84.3484 84.1874 108.606 54.2925 108.606C24.3976 108.606 0.164062 84.3484 0.164062 54.4217C0.164062 24.5003 24.3978 0.242798 54.2925 0.242798C84.1872 0.242798 108.426 24.5003 108.426 54.4217Z" fill="#6D6E70"/>
<mask id="mask0_118_10503" style="mask-type:luminance" maskUnits="userSpaceOnUse" x="0" y="0" width="109" height="109">
<path d="M108.426 54.4217C108.426 84.3484 84.1874 108.606 54.2925 108.606C24.3976 108.606 0.164062 84.3484 0.164062 54.4217C0.164062 24.5003 24.3978 0.242798 54.2925 0.242798C84.1872 0.242798 108.426 24.5003 108.426 54.4217Z" fill="white"/>
</mask>
<g mask="url(#mask0_118_10503)">
<path fill-rule="evenodd" clip-rule="evenodd" d="M114.813 109.544C114.05 107.545 112.984 105.707 111.684 104.044C109.604 101.387 106.859 99.5165 103.842 98.0878C102.968 97.6719 102.109 97.174 101.144 96.9528C98.1326 96.2672 95.1528 95.46 92.1889 94.5745C91.1386 94.6382 90.2325 94.2662 89.4276 93.6097C87.2314 92.7094 84.9283 92.0693 82.8814 90.8246C82.1616 90.7112 81.4741 90.5311 80.9837 89.943C80.6104 89.8428 80.296 89.5988 79.9228 89.4933C78.8621 89.2319 77.9718 88.689 77.284 87.8152C76.8736 87.5472 76.4417 87.3057 76.0527 86.9961C75.5674 86.7374 75.2691 86.4 75.1305 85.7998C74.9545 85.0221 74.72 84.2521 74.5069 83.4799C74.2241 82.7117 74.2135 81.8899 74.0536 81.0909C73.9576 80.648 73.8457 80.2638 73.3553 80.1292C72.881 79.8904 72.4224 80.1186 71.9799 80.2118C71.063 80.4092 70.5727 80.1237 70.4235 79.1567C70.3222 78.4578 70.1301 77.7588 70.0982 77.0703C70.0237 75.5323 69.7889 73.9063 71.2602 72.7739C72.9874 69.2855 74.2563 65.6347 75.285 61.8916C75.5198 61.0499 75.9086 60.3362 77.0334 60.3069C77.6999 60.2897 78.2491 59.8174 78.4674 59.0918C79.1285 56.8921 79.7627 54.6802 80.7756 52.6088C81.0903 51.0947 81.8421 49.6902 81.9058 48.1161C81.8897 47.8027 81.9752 47.4878 81.9433 47.173C81.9111 47.0504 81.8527 46.9396 81.7671 46.8409C81.7085 46.8061 81.6498 46.7623 81.5967 46.7182C81.6285 46.0445 81.6767 45.3721 81.6553 44.7026C81.6234 43.7633 81.1703 42.9858 80.2587 42.7443C79.4109 42.5228 79.2565 42.06 79.3045 41.3049C79.5016 38.3504 79.6669 35.3904 79.8427 32.4332C79.8801 32.3319 79.8695 32.2385 79.8109 32.157C79.8427 32.1075 79.8482 32.0515 79.8109 31.9797C79.7257 31.0845 79.6457 30.1868 79.5444 29.2931C79.3045 27.1509 79.0752 24.9899 77.9504 23.0929C75.7916 19.4313 72.7903 16.6248 69.0053 14.7C65.8071 13.0711 62.3367 12.2601 58.845 11.5585C51.5844 10.102 45.1235 11.721 39.4836 16.5461C39.5049 16.5926 39.5155 16.6461 39.5265 16.6979C38.8866 17.1061 38.3908 17.6478 38.0282 18.3147C37.3566 19.5767 36.3705 20.6025 35.3524 21.5576C33.4705 23.3237 32.4416 25.3686 32.7401 27.9671C32.6709 27.9965 32.6015 28.0338 32.5325 28.0873C32.4416 28.1831 32.3618 28.2938 32.3032 28.4127C31.8501 30.5254 32.4202 32.6225 32.4151 34.7328C32.9321 36.5149 32.9427 38.3504 33.0919 40.1779C33.172 41.1771 32.8949 41.8588 31.9246 42.1988C30.6932 42.6337 30.2028 43.6235 30.0427 44.8133C29.8722 46.0538 29.835 47.2944 30.1762 48.5362C30.656 50.2731 31.1569 52.0032 31.7166 53.7159C32.607 55.162 33.1507 56.7759 33.465 58.4009C33.6785 59.4785 34.1316 60.0962 35.0696 60.447C35.8482 60.7283 36.2692 61.262 36.4399 62.0545C36.7171 63.3188 37.1915 64.5249 37.5751 65.7546C38.0231 66.7539 38.7641 67.6423 38.7694 68.8135C38.78 68.9333 38.8067 69.0522 38.8547 69.167C40.9923 72.5777 42.1384 76.1554 40.7363 80.1733C40.0059 80.9506 39.2866 80.1359 38.5562 80.1237C37.8365 80.1089 37.2233 80.0423 37.0422 80.9362C36.493 82.6822 36.1945 84.4909 35.6401 86.2358C35.3416 87.1895 34.862 87.8858 33.9503 88.3422C31.9673 89.3452 29.952 90.2629 27.8039 90.8713C26.3805 91.8796 24.664 92.1946 23.0648 92.78C19.9625 93.9247 16.7107 94.5769 13.5175 95.4374C9.60995 96.4832 5.81975 97.7877 2.55223 100.288C0.888981 102.33 -1.30189 103.99 -2.11777 106.66C-2.11777 107.796 -2.05367 108.938 -2.13901 110.068C-2.20292 110.948 -1.95239 111.158 -1.06197 111.158C37.5008 111.128 76.0527 111.135 114.616 111.135C115.186 110.663 115.042 110.139 114.813 109.544Z" fill="#6D6E70"/>
</g>
</g>
</svg>
