<svg width="12" height="14" viewBox="0 0 12 14" fill="none" xmlns="http://www.w3.org/2000/svg">
<path d="M10.6964 4.62802H9.78789V3.56288C9.78789 1.59813 8.08584 0 5.99443 0C3.90283 0 2.20188 1.59813 2.20188 3.56288V4.62802H1.29136C0.582645 4.62802 0 5.17531 0 5.84104V12.7762C0 13.4524 0.582645 14 1.29136 14H10.6964C11.4162 14 12 13.4524 12 12.7762V5.84104C12 5.17531 11.4162 4.62802 10.6964 4.62802ZM3.9162 3.56288C3.9162 2.48606 4.84827 1.61017 5.99443 1.61017C7.14058 1.61017 8.07359 2.48606 8.07359 3.56288V4.62802H3.9162V3.56288ZM6.69645 10.79V12.5616C6.69645 12.6366 6.62832 12.69 6.54792 12.69H5.64499C5.57703 12.69 5.50778 12.6366 5.50778 12.5616V10.79C4.8906 10.5644 4.44518 10.0062 4.44518 9.34114C4.44518 8.48199 5.1875 7.78417 6.10268 7.78417C7.01656 7.78417 7.75887 8.48199 7.75887 9.34114C7.75887 10.0062 7.31362 10.5644 6.69645 10.79Z" fill="#5B7ED7"/>
</svg>
