<svg xmlns="http://www.w3.org/2000/svg" xml:space="preserve" width="133.821mm" height="133.556mm" version="1.1" style="shape-rendering:geometricPrecision; text-rendering:geometricPrecision; image-rendering:optimizeQuality; fill-rule:evenodd; clip-rule:evenodd"
viewBox="0 0 13376.78 13350.29"
 xmlns:xlink="http://www.w3.org/1999/xlink"
 xmlns:xodm="http://www.corel.com/coreldraw/odm/2003">
 <g id="Слой_x0020_1">
  <metadata id="CorelCorpID_0Corel-Layer"/>
  <g id="_2111568554144">
   <path fill="#12A2A2" d="M8074.46 10592.18c-73.15,78.68 -413.65,107.85 -571.95,126.96 -460.65,55.6 -363.67,-194.38 -228.3,-256.11 89.11,-40.62 410.45,-142.68 529.25,-182.23 329.59,-109.71 362.19,213.27 271,311.38zm-6618.94 -4801.23c329.01,-55.8 1111.9,-39.44 1384.01,74.05 335.13,139.79 609.03,450.37 699.05,810.54 184.04,736.29 -13.63,1809.84 -968.4,1959.56 -342.37,53.69 -1122.35,38.43 -1402.45,-80.25 -335.28,-142.05 -595.03,-413.79 -698.57,-809.45 -195.82,-748.29 -7.55,-1785.85 986.36,-1954.45zm156.19 -394.93c-626.29,6.56 -971.56,-29.49 -1324.96,366.83 -346.04,388.07 -279.97,828.88 -280.04,1449.59 -0.07,577.81 -73.04,1046.87 264.11,1430.62 389.75,443.6 678.55,350.25 1359.92,384.46 309.53,341.38 492.57,560.85 880.32,831.67 1360.62,950.34 2621.85,995.92 4206.15,981.1 224.49,386.87 644.91,269.75 1164.14,196.93 1100.83,-154.38 767.6,-1004.87 367.53,-1131.97 -262.65,-83.45 -421.08,13.02 -620.14,95.01 -468.99,193.17 -746.85,102.48 -955.3,544.74 -1025.72,118.27 -2558.2,-332.28 -3444.84,-876.41 -196.52,-120.61 -721.84,-458.97 -779.42,-643.04 632.35,-1.74 926.23,23.21 1283.38,-381.38 337.58,-382.43 264.12,-789 264.13,-1396.46 0.01,-588.89 78,-1038.06 -230.94,-1429.61 -345.22,-437.52 -653.86,-393.31 -1270.89,-424.65 -113.78,-680.31 -137.99,-4990.09 874.59,-5181.39 494.91,-93.5 768.08,724.65 963.48,1034.62 -115.06,-490.63 -424.98,-1363.54 -1077.29,-1233.64 -887.27,176.71 -1300.97,2453.31 -1421.69,3233.7 -99.86,645.59 -83.91,1568.46 -222.25,2149.28z"/>
   <path fill="#3C3C3C" d="M9830.61 9703.74c-92.42,29.47 -214.12,69.07 -328.25,87.76 -166,27.18 -209.88,-1.47 -305.78,127.24 -161.34,344.19 378.38,434.88 533.28,643.74 -243.41,234.81 -688.1,162.67 -389.01,1175.05 163.72,554.2 282.66,999.84 -310.13,1218.04 -1119.76,412.17 -3314.98,-722.33 -3947.57,-29.17 548.11,-239.1 1095.25,-97.72 1671.85,62.92 797.34,222.16 2532.75,792.58 3001.33,-224.49 295.97,-642.4 -217.75,-1281.33 -89.08,-1632.57 88.2,-173.77 384.6,-134.17 494.97,-397.27 138.27,-329.61 -124.33,-411.73 -223.12,-618.54 188.76,-57.3 479.81,-221.52 424.2,-492.37 -35.97,-175.21 -333.26,-305.57 -371.66,-584.43 297.91,-214.22 714.24,-284.46 932.8,-572.59 306.53,-404.1 79.7,-752.56 -152.38,-1051.24 -581.58,-748.52 -1085.18,-768.04 -1258.97,-1770.53 -244.73,-1411.68 -194.36,-2198.91 -1175.79,-3375.42 -178.56,-214.06 -520.48,-560.52 -816.81,-698.38 525.02,610.1 837.29,681.73 1272.39,1830.74 353.12,932.54 205.54,1788.67 445.48,2690.21 224.11,842.06 1038.79,1198.95 1345.24,1794.73 308.79,600.31 -1089.98,474.12 -1035.54,1229.92 18.57,257.86 208.97,388.84 282.55,586.64z"/>
   <path fill="#12A2A2" d="M1879.66 6714.1c723.69,-235.93 1096.93,744.7 389.65,994.61 -693.83,245.16 -1180.1,-736.93 -389.65,-994.61zm-1220.97 992.03c187.34,748.51 972.02,826.22 1845.33,735.12 867.7,-90.51 986.71,-1070.66 843.9,-1710.99 -168.97,-757.61 -1008.21,-850.92 -1856.89,-748.76 -862.7,103.85 -986.13,1110.23 -832.35,1724.64z"/>
   <path fill="#fff" d="M658.69 7706.13c-153.78,-614.41 -30.36,-1620.79 832.35,-1724.64 848.68,-102.16 1687.91,-8.85 1856.89,748.76 142.81,640.33 23.8,1620.48 -843.9,1710.99 -873.31,91.1 -1657.99,13.39 -1845.33,-735.12zm796.83 -1915.18c-993.91,168.59 -1182.19,1206.16 -986.36,1954.45 103.54,395.65 363.29,667.39 698.57,809.45 280.1,118.68 1060.08,133.94 1402.45,80.25 954.77,-149.72 1152.44,-1223.27 968.4,-1959.56 -90.02,-360.17 -363.92,-670.74 -699.05,-810.54 -272.1,-113.49 -1055,-129.85 -1384.01,-74.05z"/>
   <path fill="#fff" d="M1879.66 6714.1c-790.44,257.68 -304.18,1239.77 389.65,994.61 707.28,-249.91 334.04,-1230.54 -389.65,-994.61z"/>
   <path fill="#339B94" d="M11904.35 12991.28c509.4,-240.99 1131.39,-1248.64 1316.22,-1878.88 253.82,-865.45 211.81,-2044.02 -225.76,-2701.65 246.93,1017.15 371.99,1573.28 73.75,2657.09 -235.31,855.11 -739.49,1443.17 -1164.21,1923.44z"/>
   <path fill="#339B94" d="M11294.58 12178.27c883.28,-501.18 1424.9,-2119.81 785.35,-3263.86 13.02,275.21 116.01,560.86 119.44,906.48 6.23,626.21 -153.44,1202.46 -459.68,1720.1 -159.51,269.61 -311.49,421.85 -445.11,637.28z"/>
   <path fill="#12A2A2" d="M10818.87 11359.84c589.14,-213.27 760.74,-1391.63 486.53,-1802.27l-56.64 -68.87c4.07,1335.75 -182.84,1117.95 -429.89,1871.14z"/>
   <path fill="#fff" d="M8074.46 10592.18c91.19,-98.1 58.59,-421.08 -271,-311.38 -118.8,39.54 -440.13,141.6 -529.25,182.23 -135.38,61.73 -232.35,311.71 228.3,256.11 158.3,-19.11 498.8,-48.28 571.95,-126.96z"/>
  </g>
 </g>
</svg>
