<svg width="30" height="30" viewBox="0 0 30 30" fill="none" xmlns="http://www.w3.org/2000/svg">
<g clip-path="url(#clip0_2_6464)">
<path d="M6.23812 14.9194H7.43312C7.77089 16.2229 8.42158 17.4243 9.32875 18.4194C11.7312 21.0444 13.6344 22.3781 14.9875 22.3781C16.3406 22.3781 18.2375 21.0462 20.6388 18.42C21.4291 17.5561 22.0258 16.5332 22.3887 15.42L23.4656 14.9256H23.7156C23.9462 14.9256 24.1673 14.834 24.3304 14.671C24.4934 14.5079 24.585 14.2868 24.585 14.0562V12.1606C24.585 11.93 24.4934 11.7089 24.3304 11.5459C24.1673 11.3828 23.9462 11.2912 23.7156 11.2912H23.4656L23.8212 10.2812C24.069 9.43933 24.2138 8.5705 24.2525 7.69375C24.3525 5.88125 23.6025 3.63125 21.6838 2.80625C20.7585 2.41452 19.7156 2.40553 18.7838 2.78125C18.7838 2.78125 17.875 0.224999 12.9813 0.681249C10.6125 0.899999 8.4875 1.8 7.10625 4.1125C6.04672 5.90773 5.64872 8.01711 5.98125 10.075L6.23688 11.2912C6.00652 11.2916 5.78571 11.3833 5.62294 11.5463C5.46017 11.7093 5.36875 11.9303 5.36875 12.1606V14.05C5.36875 14.2806 5.46034 14.5017 5.62338 14.6647C5.78642 14.8278 6.00755 14.9194 6.23812 14.9194ZM19.9475 17.7837C17.7938 20.14 16.0319 21.4375 14.9875 21.4375C13.9431 21.4375 12.175 20.14 10.0212 17.7837C8.77933 16.4262 8.09156 14.6524 8.09375 12.8125V11.3956C10.9321 11.1885 13.7057 10.4463 16.2681 9.20812C16.9901 8.87192 17.6831 8.47662 18.34 8.02625C18.1279 8.82048 17.6406 9.51356 16.965 9.98187C16.8806 10.0337 16.8147 10.111 16.7769 10.2026C16.7392 10.2942 16.7314 10.3954 16.7547 10.4917C16.778 10.588 16.8313 10.6744 16.9068 10.7386C16.9823 10.8027 17.0762 10.8413 17.175 10.8487C18.8179 11.0099 20.4684 10.6296 21.875 9.76562V12.8125C21.8741 13.4622 21.7877 14.109 21.6181 14.7362L17.6437 16.5625C17.3891 16.3352 17.06 16.2092 16.7188 16.2081C16.4399 16.2076 16.1673 16.2899 15.9352 16.4445C15.7032 16.599 15.5222 16.819 15.4153 17.0765C15.3083 17.3339 15.2802 17.6174 15.3344 17.8909C15.3886 18.1643 15.5228 18.4156 15.7199 18.6128C15.917 18.81 16.1682 18.9442 16.4416 18.9986C16.7151 19.0529 16.9985 19.0249 17.2561 18.9181C17.5136 18.8112 17.7336 18.6304 17.8883 18.3984C18.043 18.1665 18.1254 17.8938 18.125 17.615C18.1238 17.5365 18.1158 17.4583 18.1012 17.3812L21.1569 15.9787C20.8459 16.6373 20.4383 17.2457 19.9475 17.7837ZM10.2413 26.6756L10.5294 26.2562L8.75375 25.9687C8.64818 25.9515 8.55165 25.8988 8.48016 25.8192C8.40867 25.7396 8.36649 25.6381 8.36062 25.5312L8.1875 21.82L2.65625 23.8019L0.625 29.375H12.2781L10.2863 27.2625C10.2128 27.1845 10.1683 27.0838 10.1602 26.977C10.152 26.8702 10.1806 26.7639 10.2413 26.6756Z" fill="#717C8C"/>
<path d="M9.10986 21.4894L9.27924 25.1044L11.4086 25.4494C11.4868 25.4617 11.5606 25.4936 11.623 25.5422C11.6855 25.5908 11.7347 25.6544 11.7659 25.7272C11.7971 25.7999 11.8094 25.8793 11.8015 25.9581C11.7937 26.0369 11.766 26.1123 11.7211 26.1775L11.2292 26.8944L13.5667 29.375H14.9999L10.833 20.875L9.10986 21.4894ZM18.2792 26.1769C18.2345 26.1117 18.2069 26.0363 18.1992 25.9576C18.1914 25.879 18.2037 25.7996 18.2349 25.727C18.2661 25.6543 18.3152 25.5908 18.3776 25.5422C18.44 25.4937 18.5137 25.4618 18.5917 25.4494L20.7205 25.1044L20.8905 21.4894L19.1667 20.875L14.9999 29.375H16.433L18.7717 26.8944L18.2792 26.1769Z" fill="#717C8C"/>
<path d="M27.3436 23.8018L21.8123 21.8199L21.6379 25.5281C21.6321 25.6349 21.5899 25.7365 21.5184 25.816C21.4469 25.8956 21.3504 25.9484 21.2448 25.9656L19.4698 26.2531L19.7579 26.6731C19.8184 26.7613 19.8468 26.8676 19.8385 26.9742C19.8302 27.0809 19.7857 27.1815 19.7123 27.2593L17.7217 29.3749H29.3748L27.3436 23.8018Z" fill="#717C8C"/>
</g>
<defs>
<clipPath id="clip0_2_6464">
<rect width="30" height="30" fill="white"/>
</clipPath>
</defs>
</svg>
