
<svg width="60" height="60" viewBox="0 0 60 60" fill="none" xmlns="http://www.w3.org/2000/svg">
<rect width="60" height="60" fill="#797979"/>
<g id="Frame 2535894" clip-path="url(#clip0_0_1)">
<rect width="1366" height="1200" transform="translate(-363 -248)" fill="#FAFDFF"/>
<g id="Group 2535960">
<rect id="Rectangle 23425360" x="-292.5" y="-73.5" width="1225" height="430" rx="9.5" fill="white" stroke="#B6BCCD"/>
<g id="fluent:video-person-call-24-filled">
<path id="Vector" d="M45.025 30.6125L46.285 27.645C46.875 26.255 48.2875 25.495 49.675 25.785L49.97 25.8625L51.545 26.3675C53.11 26.8675 54.305 28.205 54.6925 29.885C55.61 33.88 54.5075 38.7425 51.3875 44.475C48.27 50.1975 44.8525 53.6375 41.1375 54.7975C40.4286 55.0172 39.6757 55.0539 38.9488 54.9045C38.2219 54.755 37.5447 54.4241 36.98 53.9425L36.67 53.6575L35.475 52.4575C34.9723 51.9398 34.6473 51.2756 34.5471 50.561C34.4469 49.8464 34.5766 49.1185 34.9175 48.4825L35.095 48.19L36.9 45.54C37.6075 44.4975 38.825 44.005 39.9925 44.2525L40.31 44.34L43.64 45.45C44.9912 44.4194 46.1219 43.128 46.965 41.6525C47.694 40.4266 48.1986 39.0805 48.455 37.6775L48.55 37.0025L45.7775 34.3725C45.3297 33.9364 45.0114 33.3849 44.8579 32.7791C44.7043 32.1732 44.7215 31.5367 44.9075 30.94L45.025 30.6125L46.285 27.645L45.0275 30.6125H45.025ZM49.3625 10C50.8543 10 52.2851 10.5926 53.34 11.6475C54.3949 12.7024 54.9875 14.1332 54.9875 15.625L54.99 25.5725C54.3549 24.9729 53.614 24.4965 52.805 24.1675L52.305 23.985L51.2375 23.6425V15.625C51.2375 15.1277 51.04 14.6508 50.6883 14.2992C50.3367 13.9475 49.8598 13.75 49.3625 13.75H10.625C10.1277 13.75 9.65081 13.9475 9.29917 14.2992C8.94754 14.6508 8.75 15.1277 8.75 15.625V44.3875C8.75 45.4225 9.59 46.2625 10.625 46.2625L17.4975 46.26L17.5 39.375C17.5 38.277 17.9129 37.2192 18.6567 36.4115C19.4005 35.6038 20.4207 35.1053 21.515 35.015L21.875 35H38.1125C39.2109 35.0001 40.269 35.4133 41.0768 36.1576C41.8845 36.9019 42.3827 37.9228 42.4725 39.0175L42.4875 39.375L42.485 42.43L41.1 41.9675L40.685 41.8475C39.6651 41.5992 38.5952 41.6496 37.6031 41.9927C36.611 42.3358 35.7386 42.9571 35.09 43.7825L34.83 44.1325L33.0275 46.7825L32.7825 47.175C32.2825 48.055 32.0275 49.035 32.015 50.01H10.625C9.13359 50.01 7.70323 49.4177 6.64841 48.3634C5.59359 47.309 5.00066 45.8789 5 44.3875V15.625C5 14.1332 5.59263 12.7024 6.64752 11.6475C7.70242 10.5926 9.13316 10 10.625 10H49.3625ZM30 17.5C31.9891 17.5 33.8968 18.2902 35.3033 19.6967C36.7098 21.1032 37.5 23.0109 37.5 25C37.5 26.9891 36.7098 28.8968 35.3033 30.3033C33.8968 31.7098 31.9891 32.5 30 32.5C28.0109 32.5 26.1032 31.7098 24.6967 30.3033C23.2902 28.8968 22.5 26.9891 22.5 25C22.5 23.0109 23.2902 21.1032 24.6967 19.6967C26.1032 18.2902 28.0109 17.5 30 17.5Z" fill="#325ECD"/>
</g>
</g>
</g>
<defs>
<clipPath id="clip0_0_1">
<rect width="1366" height="1200" fill="white" transform="translate(-363 -248)"/>
</clipPath>
</defs>
</svg>
