<?xml version="1.0" standalone="no"?>
<!DOCTYPE svg PUBLIC "-//W3C//DTD SVG 20010904//EN"
 "http://www.w3.org/TR/2001/REC-SVG-20010904/DTD/svg10.dtd">
<svg version="1.0" xmlns="http://www.w3.org/2000/svg"
 width="2000.000000pt" height="2000.000000pt" viewBox="0 0 2000.000000 2000.000000"
 preserveAspectRatio="xMidYMid meet">
<metadata>
Created by potrace 1.14, written by Peter Selinger 2001-2017
</metadata>
<g transform="translate(0.000000,2000.000000) scale(0.100000,-0.100000)"
fill="#000000" stroke="none">
<path d="M9990 13120 c0 -140 0 -382 0 -537 0 -260 -1 -282 -17 -287 -21 -6
-94 -20 -108 -21 -6 0 -10 -45 -10 -114 l0 -114 -130 -34 c-72 -18 -144 -37
-161 -42 -71 -19 -255 -109 -347 -169 -95 -62 -236 -190 -308 -282 -103 -129
-227 -355 -278 -505 -30 -91 -36 -113 -47 -195 -3 -25 -7 -52 -9 -60 -1 -8 -6
-35 -11 -60 -4 -25 -8 -47 -9 -50 -1 -3 -5 -24 -9 -47 -4 -24 -13 -46 -19 -50
-7 -4 -158 -8 -337 -9 -179 -1 -339 -2 -357 -3 l-31 -1 0 -107 c0 -148 -1
-163 -10 -163 -4 0 -8 55 -9 123 -1 67 -2 129 -2 137 -1 13 -29 15 -197 13
-108 -1 -199 -5 -202 -8 -4 -4 -6 -2817 -2 -3465 l0 -55 182 2 c101 1 190 2
200 2 17 1 17 1 2 206 -3 50 -8 113 -9 140 -2 28 -6 86 -9 130 -3 44 -8 109
-11 145 -18 246 -13 225 -55 234 -101 22 -58 24 525 26 341 0 627 1 635 1 8 0
779 -1 1713 -3 933 -1 1697 -6 1697 -9 0 -4 -4 -9 -10 -11 -6 -2 -10 -150 -10
-395 -1 -295 -4 -393 -13 -394 -7 0 -191 -1 -409 -2 -258 -1 -399 2 -401 8 -1
6 -2 181 -2 390 l0 380 -40 5 c-22 3 -62 3 -89 0 l-49 -5 -3 -255 c-5 -577 -3
-540 -27 -541 -70 -2 -2309 9 -2317 11 -3 1 -22 1 -42 0 l-37 -1 5 188 c8 284
8 373 1 434 -6 56 -32 147 -46 161 -6 7 -74 13 -107 9 -15 -1 -43 -71 -51
-125 -5 -39 -6 -263 -1 -521 1 -66 -1 -127 -4 -136 -5 -14 -51 -15 -408 -13
l-401 2 3 -34 c1 -18 -1 -36 -5 -40 -6 -6 -632 -9 -647 -4 -3 1 -9 1 -15 0
-32 -6 -97 -5 -101 2 -3 5 -10 5 -16 2 -13 -9 -847 -8 -855 0 -3 3 -11 1 -18
-4 -7 -6 -23 -6 -43 -1 -17 5 -33 7 -36 4 -8 -8 -181 -8 -193 0 -7 4 -14 4
-17 -1 -4 -7 -50 -8 -66 -2 -3 1 -9 1 -15 0 -21 -5 -436 -2 -441 3 -3 2 -19 2
-37 -2 -18 -4 -45 -4 -62 -1 -16 3 -46 3 -65 0 -19 -4 -47 -3 -63 1 -15 4 -27
4 -27 1 0 -5 -148 -6 -265 -1 -5 0 -44 0 -85 0 -41 -1 -84 -1 -95 -1 -30 1
-189 1 -200 1 -5 0 -41 -1 -80 -1 -38 0 -92 -1 -120 -1 -72 -1 -77 -1 -112 3
-18 2 -33 0 -33 -5 0 -4 -4 -6 -8 -3 -5 3 -44 5 -88 5 -94 1 -112 1 -139 5
-11 1 -31 -1 -45 -4 -14 -4 -37 -3 -52 1 -16 4 -30 3 -34 -2 -3 -5 -12 -5 -23
1 -10 5 -21 7 -24 4 -4 -5 -140 -6 -385 -3 -30 0 -56 -2 -59 -4 -2 -3 -18 -1
-34 3 -17 5 -31 5 -35 -1 -4 -6 -11 -6 -20 2 -8 6 -14 8 -14 3 0 -5 -34 -7
-76 -4 -42 3 -78 2 -81 -3 -2 -4 -9 -5 -14 -1 -14 8 -109 11 -109 3 0 -4 -15
-4 -32 0 -18 3 -46 5 -63 4 -62 -5 -125 -4 -135 2 -6 3 -15 3 -21 -1 -6 -3
-66 -6 -133 -4 -66 1 -128 1 -136 1 -8 -1 -26 -1 -40 -1 -132 5 -160 4 -160
-3 0 -5 -5 -5 -10 -2 -9 6 -389 10 -415 5 -5 -1 -14 -2 -19 -1 -5 1 -73 2
-150 2 -78 -1 -177 -1 -221 0 -343 3 -1217 0 -1222 -4 -3 -3 -6 -19 -8 -34
-15 -178 -22 -218 -46 -265 -11 -22 -18 -43 -14 -46 3 -4 88 -7 188 -8 100 -1
187 -3 192 -4 6 -1 12 -1 15 0 15 6 79 5 103 -1 15 -4 27 -4 27 0 0 5 17 6 37
2 28 -4 2448 -5 2792 -1 23 0 52 -2 63 -6 12 -4 18 -2 15 4 -4 6 8 7 31 3 20
-4 52 -4 70 0 18 4 32 2 32 -3 0 -5 5 -6 10 -3 6 4 41 6 78 5 37 0 78 -1 92
-1 14 0 52 1 85 1 33 0 85 1 115 1 30 0 75 0 100 0 25 -1 61 0 80 0 19 1 58 1
85 0 55 -1 80 -1 175 2 36 1 68 -2 71 -7 4 -5 13 -5 20 0 16 10 175 12 211 2
15 -3 30 -3 32 0 2 4 37 6 78 4 40 -1 78 -3 83 -3 41 0 642 11 915 17 615 14
1531 9 1670 -10 14 -2 50 -6 80 -10 45 -6 84 -15 140 -31 3 -1 21 -5 40 -8 37
-8 4514 -13 4540 -6 8 3 20 7 25 10 9 6 45 16 85 26 83 19 242 27 535 26 276
0 812 -9 830 -13 6 -1 12 -1 15 0 16 6 200 4 200 -3 0 -5 5 -5 11 -2 16 10
249 12 249 2 0 -5 5 -5 12 -1 16 10 148 11 148 1 0 -5 5 -5 12 -1 16 10 148
11 148 1 0 -5 5 -5 12 -1 17 11 142 11 149 0 4 -5 13 -5 20 0 16 10 174 12
211 3 14 -4 29 -5 32 -1 9 8 187 9 212 0 12 -4 25 -4 28 -1 9 9 175 10 208 2
14 -4 29 -5 32 -1 9 8 187 9 212 0 12 -4 25 -4 28 -1 9 10 196 9 196 0 0 -5 5
-5 11 -2 16 10 249 12 249 2 0 -5 5 -5 12 -1 16 10 148 11 148 1 0 -5 5 -5 12
-1 16 10 148 11 148 1 0 -5 5 -5 12 -1 17 11 142 11 149 0 4 -5 13 -5 20 0 16
10 174 12 211 3 14 -4 29 -5 32 -1 9 8 187 9 212 0 12 -4 25 -4 28 -1 9 9 175
10 208 2 14 -4 29 -5 32 -1 9 8 187 9 212 0 12 -4 25 -4 28 -1 9 9 196 9 196
1 0 -4 7 -5 16 -1 23 9 215 10 241 1 12 -4 24 -4 27 0 5 8 208 7 230 -1 9 -4
16 -3 16 1 0 4 43 7 95 7 52 0 95 -3 95 -7 0 -4 7 -5 16 -1 24 9 204 9 204 0
0 -5 5 -5 12 -1 16 10 228 11 228 1 0 -5 5 -5 12 -1 16 10 388 11 388 1 0 -5
5 -5 12 -1 16 10 228 11 228 1 0 -5 5 -5 11 -1 16 10 169 11 169 1 0 -5 5 -5
12 -1 6 4 47 7 90 7 43 -1 78 2 78 6 0 5 -5 21 -10 37 -6 16 -21 92 -33 169
-15 93 -27 139 -35 138 -20 -5 -95 29 -122 53 l-25 23 2 1725 c1 1607 0 1726
-15 1727 -112 5 -175 8 -272 11 l-115 3 -2 -520 c-1 -286 -2 -545 -2 -575 -1
-30 0 -142 2 -247 1 -106 0 -193 -3 -193 -3 0 -3 -28 0 -62 3 -35 3 -107 0
-161 -3 -55 -2 -101 3 -104 4 -2 5 -8 3 -12 -3 -4 -5 -23 -6 -42 -1 -67 -1
-196 0 -319 0 -69 0 -136 0 -150 -1 -14 -2 -277 -3 -585 l-2 -560 -320 -1
-320 -1 0 54 c0 29 4 53 8 53 5 0 5 5 2 10 -6 10 -9 111 -5 135 2 6 1 15 0 20
-1 6 -1 35 -1 65 1 30 1 64 1 75 -1 11 -1 25 -1 30 2 56 2 202 0 210 -1 6 -1
14 1 20 1 5 3 651 5 1435 l4 1425 -187 -1 c-103 -1 -191 -2 -197 -3 -7 -1 -10
-574 -10 -1699 0 -933 -2 -1728 -5 -1766 l-5 -70 -70 3 c-38 2 -177 3 -308 3
l-237 1 2 1753 c2 964 0 1756 -4 1760 -4 4 -67 8 -140 10 -73 2 -156 6 -184 8
-29 2 -57 1 -62 -3 -7 -4 -12 -563 -14 -1766 l-3 -1760 -302 -1 c-272 -2 -302
0 -305 15 -2 9 -3 802 -2 1764 l3 1747 -62 1 c-34 1 -122 2 -194 3 l-133 3 0
-111 c-1 -61 -3 -840 -5 -1731 -2 -891 -4 -1636 -4 -1655 l-1 -36 -315 0 -314
-1 4 1546 c3 850 5 1551 5 1556 0 6 -1 42 -3 80 -1 39 1 76 6 83 5 7 6 12 1
12 -8 0 -11 173 -4 205 1 6 2 18 1 28 -1 16 -16 17 -207 15 l-207 -3 1 -1761
0 -1762 -309 1 -309 0 3 1766 2 1766 -183 0 c-101 0 -188 -3 -194 -6 -8 -5
-12 -508 -14 -1751 -1 -958 -3 -1751 -3 -1761 -1 -15 -10 -18 -53 -18 -29 1
-60 1 -68 0 -8 0 -34 1 -57 3 -24 2 -43 0 -43 -5 0 -4 -5 -5 -11 -1 -7 4 -93
7 -193 6 -99 0 -183 4 -186 8 -3 5 -4 796 -3 1759 2 963 -1 1752 -5 1752 -18
4 -362 12 -387 10 -7 -1 -11 -581 -12 -1714 -1 -941 -2 -1735 -3 -1764 l0 -51
-306 1 -307 2 3 235 c1 129 2 379 2 555 -1 366 0 2105 1 2420 1 323 -6 334
-208 330 -60 -2 -134 -3 -164 -4 -48 -1 -53 -3 -48 -21 3 -11 1 -23 -4 -26 -5
-3 -9 1 -9 9 0 8 -9 22 -21 33 -21 19 -106 22 -489 13 -197 -4 -222 12 -235
146 -3 33 -8 69 -10 80 -3 11 -7 31 -9 45 -17 102 -87 304 -144 415 -32 61
-106 181 -129 210 -4 6 -21 28 -37 50 -29 40 -174 187 -231 235 -53 45 -198
136 -275 173 -68 33 -204 83 -255 93 -76 16 -125 25 -159 29 -21 3 -41 7 -44
10 -3 3 -7 38 -9 77 -4 100 -14 130 -51 153 -17 11 -41 40 -53 65 -19 39 -22
63 -23 185 -1 199 15 228 143 240 29 3 57 7 60 10 6 3 125 16 171 19 47 2 152
-19 242 -49 116 -39 119 -40 113 -22 -2 6 -6 37 -9 67 -8 78 -16 141 -22 170
-2 14 -7 50 -10 80 -8 90 -10 110 -15 114 -12 12 -173 35 -289 41 -153 9 -246
22 -283 42 -38 19 -90 70 -116 113 l-21 35 0 -255z m185 -1594 c157 -20 286
-67 416 -151 77 -50 199 -166 257 -245 128 -176 213 -424 237 -700 5 -51 5
-496 0 -1080 l-3 -395 -1068 0 -1069 0 -2 290 c-7 1175 -6 1237 13 1370 42
292 179 513 437 703 59 44 227 137 227 126 0 -4 6 -2 13 3 34 28 208 72 312
80 39 3 71 6 72 7 4 3 112 -2 158 -8z m-2375 -1290 c0 -30 16 -33 176 -30 267
5 400 5 422 -1 12 -3 32 -7 45 -10 86 -19 92 -31 113 -235 8 -74 12 -920 4
-920 -3 0 -7 -135 -8 -299 l-4 -300 1456 1 c1063 0 1456 4 1459 12 2 6 3 403
2 881 l-1 871 121 -3 c372 -9 539 2 606 38 11 5 20 6 20 2 2 -16 8 -489 13
-1150 l5 -683 -27 -1 c-15 0 -1013 -1 -2218 -3 l-2191 -2 -2 520 c-1 287 -3
704 -5 929 -1 224 2 407 6 407 4 0 8 -11 8 -24z m-184 -1979 c4 -4 -2 -7 -13
-7 -19 0 -20 -7 -20 -170 0 -94 -3 -173 -7 -177 -18 -18 -25 26 -26 167 -2
218 -5 199 30 196 16 -1 33 -5 36 -9z m44 1 c0 -4 -7 -8 -15 -8 -8 0 -15 4
-15 8 0 5 7 9 15 9 8 0 15 -4 15 -9z m90 2 c0 -4 -18 -8 -40 -8 -22 0 -40 2
-40 6 0 4 18 8 40 8 22 1 40 -2 40 -6z m25 0 c3 -5 1 -10 -4 -10 -6 0 -11 5
-11 10 0 6 2 10 4 10 3 0 8 -4 11 -10z m135 0 c0 -4 -27 -7 -60 -8 -33 0 -60
3 -60 6 0 4 27 7 60 8 33 0 60 -3 60 -6z m25 0 c3 -5 1 -10 -4 -10 -6 0 -11 5
-11 10 0 6 2 10 4 10 3 0 8 -4 11 -10z m95 0 c0 -4 -18 -8 -40 -8 -22 0 -40 2
-40 6 0 4 18 8 40 8 22 1 40 -2 40 -6z m80 -1 c0 -5 -16 -8 -35 -7 -20 1 -32
4 -26 7 15 10 61 10 61 0z m25 1 c3 -5 1 -10 -4 -10 -6 0 -11 5 -11 10 0 6 2
10 4 10 3 0 8 -4 11 -10z m175 -1 c0 -4 -36 -6 -80 -6 -44 0 -80 3 -80 6 0 4
36 7 80 7 44 -1 80 -3 80 -7z m104 0 c4 -4 -16 -6 -45 -6 -28 0 -46 3 -41 6
13 8 78 8 86 0z m60 3 c2 -4 -7 -9 -22 -10 -21 -1 -24 0 -12 8 18 12 27 12 34
2z m36 -2 c0 -5 -4 -10 -10 -10 -5 0 -10 5 -10 10 0 6 5 10 10 10 6 0 10 -4
10 -10z m50 -1 c0 -4 -9 -7 -19 -6 -11 0 -18 4 -16 7 6 9 35 8 35 -1z m30 1
c0 -5 -4 -10 -10 -10 -5 0 -10 5 -10 10 0 6 5 10 10 10 6 0 10 -4 10 -10z m88
-4 c3 -3 -14 -5 -37 -4 -23 1 -37 4 -31 8 13 8 59 5 68 -4z m47 4 c17 -8 16
-8 -7 -7 -16 1 -28 5 -28 9 0 10 9 9 35 -2z m65 -2 c0 -3 -9 -6 -20 -5 -11 1
-20 5 -20 9 0 3 9 6 20 5 11 -1 20 -5 20 -9z m50 -4 c0 -2 -9 -4 -21 -4 -11 0
-18 4 -14 10 5 8 35 3 35 -6z m45 6 c17 -8 16 -8 -7 -7 -16 1 -28 5 -28 9 0
10 9 9 35 -2z m65 -2 c0 -3 -9 -6 -20 -5 -11 1 -20 5 -20 9 0 3 9 6 20 5 11
-1 20 -5 20 -9z m50 -4 c0 -2 -9 -4 -21 -4 -11 0 -18 4 -14 10 5 8 35 3 35 -6z
m54 4 c-6 -9 -44 -6 -44 3 0 4 11 6 24 5 13 0 22 -4 20 -8z m56 0 c0 -3 -9 -6
-20 -5 -11 1 -20 5 -20 9 0 3 9 6 20 5 11 -1 20 -5 20 -9z m44 0 c-3 -4 -12
-8 -20 -8 -8 0 -13 4 -10 8 3 5 12 9 20 9 8 0 13 -4 10 -9z m56 0 c0 -3 -9 -6
-20 -5 -11 1 -20 5 -20 9 0 3 9 6 20 5 11 -1 20 -5 20 -9z m60 0 c0 -4 -9 -8
-20 -8 -11 0 -20 4 -20 8 0 4 9 8 20 8 11 0 20 -4 20 -8z m64 0 c-6 -9 -44 -6
-44 3 0 4 11 6 24 5 13 0 22 -4 20 -8z m76 0 c0 -3 -9 -6 -20 -5 -11 1 -20 5
-20 9 0 3 9 6 20 5 11 -1 20 -5 20 -9z m84 1 c3 -3 -10 -5 -29 -5 -19 0 -35 3
-35 7 0 8 56 6 64 -2z m56 1 c0 -5 -10 -10 -22 -9 -22 0 -22 1 -3 9 11 5 21 9
23 9 1 1 2 -3 2 -9z m60 -2 c0 -3 -9 -6 -20 -5 -11 1 -20 5 -20 9 0 3 9 6 20
5 11 -1 20 -5 20 -9z m60 0 c0 -4 -9 -8 -20 -8 -11 0 -20 4 -20 8 0 4 9 8 20
8 11 0 20 -4 20 -8z m70 2 c0 -5 -8 -10 -17 -10 -15 0 -16 2 -3 10 19 12 20
12 20 0z m70 -2 c0 -4 -9 -8 -20 -8 -11 0 -20 4 -20 8 0 4 9 8 20 8 11 0 20
-4 20 -8z m80 0 c0 -4 -9 -8 -20 -8 -11 0 -20 4 -20 8 0 4 9 8 20 8 11 0 20
-4 20 -8z m60 2 c0 -5 -10 -10 -22 -9 -22 0 -22 1 -3 9 11 5 21 9 23 9 1 1 2
-3 2 -9z m65 1 c-3 -2 -16 -6 -28 -8 -15 -2 -18 0 -9 5 14 9 45 12 37 3z m49
1 c2 -4 -5 -9 -17 -9 -17 -2 -19 0 -7 7 18 12 18 12 24 2z m106 0 c0 -4 -10
-9 -22 -9 -18 -2 -20 0 -8 7 18 12 30 13 30 2z m54 0 c2 -4 -5 -9 -17 -9 -17
-2 -19 0 -7 7 18 12 18 12 24 2z m40 0 c3 -5 -1 -9 -9 -9 -8 0 -12 4 -9 9 3 4
7 8 9 8 2 0 6 -4 9 -8z m66 0 c0 -4 -10 -9 -22 -9 -18 -2 -20 0 -8 7 18 12 30
13 30 2z m54 0 c2 -4 -5 -9 -17 -9 -17 -2 -19 0 -7 7 18 12 18 12 24 2z m40 0
c3 -5 -1 -9 -9 -9 -8 0 -12 4 -9 9 3 4 7 8 9 8 2 0 6 -4 9 -8z m109 1 c3 -5
-6 -9 -20 -10 -19 -1 -22 1 -12 8 17 11 26 11 32 2z m72 -11 c-3 -3 -11 0 -18
7 -9 10 -8 11 6 5 10 -3 15 -9 12 -12z m60 8 c3 -5 1 -10 -4 -10 -6 0 -11 5
-11 10 0 6 2 10 4 10 3 0 8 -4 11 -10z m410 0 c-3 -5 -12 -10 -18 -10 -7 0 -6
4 3 10 19 12 23 12 15 0z m315 -5 c0 -2 -9 -3 -19 -2 -11 0 -18 5 -15 9 4 6
34 0 34 -7z m-413 -1 c-3 -3 -12 -4 -19 -1 -8 3 -5 6 6 6 11 1 17 -2 13 -5z
m250 0 c-3 -3 -12 -4 -19 -1 -8 3 -5 6 6 6 11 1 17 -2 13 -5z m316 -1 c-7 -2
-19 -2 -25 0 -7 3 -2 5 12 5 14 0 19 -2 13 -5z m908 -5 c1 -14 6 -103 12 -245
2 -51 0 -94 -4 -94 -45 -7 -44 -10 -42 106 1 61 2 140 2 178 1 52 4 67 16 67
8 0 16 -6 16 -12z m-164 -354 c-3 -3 -12 -4 -19 -1 -8 3 -5 6 6 6 11 1 17 -2
13 -5z"/>
<path d="M9955 11056 c-118 -37 -198 -114 -233 -226 -2 -8 -4 -53 -4 -100 -1
-76 3 -92 31 -147 71 -142 191 -194 343 -149 99 28 162 89 192 181 18 58 26
144 14 151 -5 3 -6 10 -2 15 9 15 -26 110 -60 159 -34 50 -57 73 -101 97 -52
29 -122 36 -180 19z"/>
<path d="M10 10940 c0 -8 9 -34 20 -57 10 -24 17 -43 14 -43 -2 0 2 -12 10
-28 12 -24 19 -62 30 -162 2 -14 4 -29 4 -35 1 -7 912 -10 2708 -10 1488 0
2708 -3 2711 -8 2 -4 9 -4 15 -1 15 10 99 11 105 1 2 -4 9 -4 15 -1 6 4 70 6
142 5 72 -1 136 -1 141 -1 6 0 55 1 111 2 55 1 106 -2 112 -6 7 -4 12 -4 12 1
0 9 57 9 66 0 4 -3 15 -2 25 3 10 6 20 6 23 2 2 -4 32 -5 65 -2 34 3 61 2 61
-3 0 -4 5 -5 11 -1 12 7 299 8 306 1 2 -3 18 -1 36 3 18 4 41 4 52 0 11 -4 30
-4 42 1 12 5 25 4 28 0 3 -5 20 -6 38 -2 18 5 41 5 52 1 11 -4 29 -4 40 0 11
4 29 6 40 4 11 -2 43 -4 70 -4 28 1 59 1 70 1 11 0 54 0 95 0 78 1 113 0 168
-5 17 -1 32 2 32 7 0 4 4 6 10 2 11 -7 266 -9 277 -2 11 7 10 333 0 344 -5 4
-1752 8 -3883 8 -3437 0 -3874 -2 -3874 -15z"/>
<path d="M16386 10953 c-1 -2 -953 -3 -2115 -3 -1658 0 -2113 -3 -2116 -13
-10 -29 -13 -67 -5 -72 5 -3 25 -6 45 -7 40 -1 38 9 35 -145 l-1 -113 38 0
c348 -5 1773 -3 1773 2 0 3 8 4 18 2 30 -8 262 -9 262 -2 0 4 7 5 15 2 22 -9
105 -10 105 -2 0 4 6 5 13 3 20 -8 147 -11 147 -3 0 4 13 3 29 -2 16 -4 32 -6
34 -3 5 5 91 5 145 0 17 -2 32 0 32 3 0 4 21 4 48 1 26 -3 72 -4 102 -1 30 3
73 3 95 0 22 -3 54 -3 70 0 17 3 49 3 73 -1 23 -3 42 -3 42 0 0 3 42 5 92 4
51 -2 102 -3 113 -3 11 0 43 -1 70 -1 28 0 57 -1 65 0 68 2 122 1 130 -4 6 -3
10 -3 10 2 0 4 44 7 97 5 54 -2 130 -2 168 -2 153 3 176 3 180 -1 2 -3 31 -2
65 1 33 3 60 2 60 -3 0 -4 5 -5 10 -2 12 7 339 10 345 3 2 -2 31 -1 65 2 33 3
60 2 60 -3 0 -4 5 -5 11 -2 6 4 52 7 102 6 135 -2 180 -1 199 5 9 3 19 0 22
-5 4 -5 18 -6 34 -2 15 4 36 6 47 5 31 -3 168 -6 230 -4 148 3 214 2 223 -4 7
-4 12 -4 12 1 0 9 52 9 66 0 6 -3 16 -2 23 2 7 5 28 5 46 1 18 -4 38 -4 45 0
10 6 62 6 80 -1 3 -1 10 0 15 1 25 5 182 3 192 -3 7 -4 14 -4 16 0 6 10 180 9
195 -1 6 -3 13 -3 15 1 4 7 242 9 257 3 3 -1 10 -1 15 0 26 6 97 4 102 -3 2
-4 9 -4 15 -1 9 6 158 9 183 4 6 -1 15 -1 20 0 26 6 97 4 102 -3 2 -4 9 -4 15
-1 15 9 422 9 437 0 6 -4 11 -4 11 1 0 4 92 7 205 7 233 -2 210 -13 220 101
11 126 17 170 25 180 4 6 10 22 14 38 5 21 3 27 -11 28 -36 2 -3595 4 -3597 2z"/>
<path d="M260 10500 c0 -19 -3 -808 -5 -1752 -5 -1631 -4 -1718 13 -1718 9 -1
98 -3 197 -5 l181 -3 2 911 c2 502 4 1290 5 1752 l2 840 -198 5 -197 5 0 -35z"/>
<path d="M1348 10532 l-57 -3 -1 -1047 c-1 -576 -2 -1363 -3 -1749 -1 -461 1
-704 8 -706 6 -1 91 -3 190 -2 l180 0 2 550 c2 303 4 1091 5 1753 l3 1202 -50
0 c-27 1 -88 2 -135 3 -47 1 -111 1 -142 -1z"/>
<path d="M2315 10515 c-3 -11 -6 -799 -8 -1752 l-4 -1731 26 -4 c14 -1 103 -3
196 -3 l170 0 2 684 c1 376 4 686 7 689 3 2 1 13 -5 24 -5 10 -8 22 -5 27 3 5
7 474 8 1042 l3 1034 -193 5 c-187 5 -193 4 -197 -15z"/>
<path d="M3333 10527 c-4 -7 -9 -851 -16 -2850 -2 -357 0 -650 4 -652 5 -4
272 -6 347 -3 l32 2 0 170 c1 94 3 884 5 1756 l4 1585 -185 0 c-102 0 -188 -3
-191 -8z"/>
<path d="M4358 10529 c-6 -4 -11 -325 -14 -880 -2 -481 -6 -1268 -8 -1751 l-5
-876 94 0 c52 0 99 -3 105 -7 5 -3 10 -3 10 2 0 8 108 7 143 -1 9 -2 17 0 17
5 0 4 6 6 14 3 11 -4 15 7 17 48 2 29 4 820 4 1758 l0 1704 -183 1 c-101 0
-188 -3 -194 -6z"/>
<path d="M5394 10530 l-32 -5 0 -145 c0 -80 -1 -149 -2 -155 -1 -5 -2 -14 -1
-20 6 -29 5 -205 0 -205 -4 0 -3 -18 1 -40 4 -23 3 -40 -2 -40 -5 0 -6 -5 -2
-11 6 -11 7 -151 1 -224 -1 -16 1 -40 5 -52 4 -12 3 -25 -3 -28 -5 -4 -7 -11
-3 -16 8 -13 9 -107 1 -115 -3 -3 -1 -19 3 -35 5 -16 5 -31 1 -33 -8 -6 -5
-71 4 -86 3 -6 2 -10 -2 -10 -5 0 -7 -17 -5 -37 4 -50 4 -81 -1 -121 -2 -18 0
-35 5 -38 5 -3 5 -10 2 -16 -11 -17 -10 -247 0 -240 5 3 6 -1 1 -8 -10 -16
-13 -1797 -3 -1813 5 -8 56 -12 158 -13 83 -1 153 -4 157 -7 3 -4 13 -2 22 2
16 9 23 11 42 11 5 0 7 5 3 11 -4 7 -6 516 -5 1133 4 2094 4 2346 -2 2352 -7
7 -301 11 -343 4z"/>
<path d="M6382 10526 c-3 -6 -7 -458 -9 -1005 -2 -548 -4 -1332 -6 -1743 -2
-508 1 -748 8 -749 5 -1 94 -3 196 -4 l187 -2 1 451 c0 248 1 453 2 456 1 3 0
10 -1 15 -1 6 -1 66 0 135 1 69 2 132 1 140 0 8 -1 29 0 45 0 17 0 46 0 65 -2
88 0 134 4 138 2 2 0 15 -5 28 -5 13 -6 24 -2 24 6 0 7 74 1 90 -1 3 0 10 1
15 1 6 3 436 3 958 l2 947 -120 0 c-66 1 -151 2 -188 3 -38 1 -72 -2 -75 -7z"/>
</g>
</svg>
